<?xml version="1.0" encoding="UTF-8"?>
<!DOCTYPE svg PUBLIC "-//W3C//DTD SVG 1.1//EN" "http://www.w3.org/Graphics/SVG/1.1/DTD/svg11.dtd">
<svg xmlns="http://www.w3.org/2000/svg" version="1.1" width="500px" height="500px" style="shape-rendering:geometricPrecision; text-rendering:geometricPrecision; image-rendering:optimizeQuality; fill-rule:evenodd; clip-rule:evenodd" xmlns:xlink="http://www.w3.org/1999/xlink">
<g><path style="opacity:1" fill="#fefefe" d="M -0.5,-0.5 C 166.167,-0.5 332.833,-0.5 499.5,-0.5C 499.5,166.167 499.5,332.833 499.5,499.5C 332.833,499.5 166.167,499.5 -0.5,499.5C -0.5,332.833 -0.5,166.167 -0.5,-0.5 Z"/></g>
<g><path style="opacity:1" fill="#2d2b5f" d="M 232.5,129.5 C 232.173,134.214 232.507,138.88 233.5,143.5C 234.298,143.043 234.631,142.376 234.5,141.5C 236.806,137.194 240.139,133.861 244.5,131.5C 251.047,129.239 257.713,128.906 264.5,130.5C 264.842,131.338 265.508,131.672 266.5,131.5C 262.353,132.325 258.019,132.825 253.5,133C 255.025,134.009 256.692,134.509 258.5,134.5C 258.938,134.435 259.272,134.601 259.5,135C 258.756,136.039 257.756,136.539 256.5,136.5C 253.5,136.5 250.5,136.5 247.5,136.5C 247.5,137.5 247.5,138.5 247.5,139.5C 245.833,139.5 244.167,139.5 242.5,139.5C 242.433,140.959 242.766,142.292 243.5,143.5C 242.078,143.709 240.745,144.209 239.5,145C 243.821,145.499 248.154,145.666 252.5,145.5C 253.5,145.5 254.5,145.5 255.5,145.5C 257.033,147.245 259.033,148.245 261.5,148.5C 264.81,150.801 268.143,153.134 271.5,155.5C 272.389,157.736 273.722,159.736 275.5,161.5C 269.992,161.46 264.658,160.126 259.5,157.5C 257.717,153.94 256.717,153.94 256.5,157.5C 255.5,157.5 254.5,157.5 253.5,157.5C 252.105,155.7 250.439,155.366 248.5,156.5C 248.709,157.086 249.043,157.586 249.5,158C 248.167,158.333 246.833,158.667 245.5,159C 246.044,159.717 246.711,160.217 247.5,160.5C 249.226,162.228 250.559,164.228 251.5,166.5C 251.427,168.027 252.094,169.027 253.5,169.5C 254.651,175.318 254.651,180.985 253.5,186.5C 253.573,184.973 252.906,183.973 251.5,183.5C 250.698,180.426 249.698,177.426 248.5,174.5C 247.434,173.308 246.601,173.641 246,175.5C 245.722,174.584 245.222,173.918 244.5,173.5C 242.598,167.112 241.098,167.112 240,173.5C 238.331,172.154 237.164,170.487 236.5,168.5C 236.44,167.957 236.107,167.624 235.5,167.5C 234.508,171.783 234.174,176.116 234.5,180.5C 233.083,185.679 230.417,190.012 226.5,193.5C 225.662,193.158 225.328,192.492 225.5,191.5C 225.5,191.167 225.5,190.833 225.5,190.5C 227.749,188.669 228.915,186.336 229,183.5C 227.667,184.833 226.333,186.167 225,187.5C 224.517,186.552 224.351,185.552 224.5,184.5C 224.962,182.243 225.962,180.243 227.5,178.5C 225.214,176.28 225.214,173.947 227.5,171.5C 228.043,171.44 228.376,171.107 228.5,170.5C 227.173,168.689 226.173,166.689 225.5,164.5C 224.702,164.957 224.369,165.624 224.5,166.5C 213.735,182.307 209.569,199.974 212,219.5C 212.975,225.156 213.808,230.823 214.5,236.5C 211.373,237.581 208.04,238.247 204.5,238.5C 204.5,228.167 204.5,217.833 204.5,207.5C 206.23,203.117 207.23,198.45 207.5,193.5C 209.609,183.619 213.609,174.619 219.5,166.5C 221.377,165.171 221.544,163.838 220,162.5C 218.715,162.95 217.548,163.617 216.5,164.5C 215.549,163.674 214.549,163.508 213.5,164C 212,165.5 210.5,167 209,168.5C 208.667,167.5 208.333,166.5 208,165.5C 206.243,168.014 204.743,170.681 203.5,173.5C 202.719,172.271 202.219,170.938 202,169.5C 201.726,172.715 200.393,175.381 198,177.5C 197.846,168.144 202.012,161.477 210.5,157.5C 212.807,156.595 212.807,155.262 210.5,153.5C 207.871,154.213 205.537,154.213 203.5,153.5C 202.508,153.328 201.842,153.662 201.5,154.5C 199.545,155.323 197.545,155.49 195.5,155C 197.396,153.935 197.563,153.102 196,152.5C 192.41,154.03 188.743,155.364 185,156.5C 184.235,156.43 183.735,156.097 183.5,155.5C 185.599,154.483 186.599,153.15 186.5,151.5C 181.355,153.151 176.855,155.818 173,159.5C 175.198,153.465 179.365,149.131 185.5,146.5C 191.13,145.708 196.797,145.375 202.5,145.5C 204.547,145.511 206.547,145.844 208.5,146.5C 209.966,145.865 211.3,145.031 212.5,144C 209.721,143.439 207.054,142.606 204.5,141.5C 204.577,140.25 205.244,139.417 206.5,139C 202.054,136.916 197.721,134.75 193.5,132.5C 196.187,132.664 198.854,132.497 201.5,132C 199.846,131.392 198.179,130.892 196.5,130.5C 194.123,129.113 191.457,128.279 188.5,128C 191.817,127.502 195.15,127.335 198.5,127.5C 208.552,128.726 216.052,133.726 221,142.5C 221.361,139.563 220.861,136.73 219.5,134C 219.892,132.989 220.559,132.489 221.5,132.5C 219.793,130.358 218.959,128.025 219,125.5C 219.718,126.451 220.551,126.617 221.5,126C 218.405,121.815 215.072,117.815 211.5,114C 212,113.833 212.5,113.667 213,113.5C 217.98,115.149 222.48,117.649 226.5,121C 228.891,123.637 230.891,126.47 232.5,129.5 Z"/></g>
<g><path style="opacity:1" fill="#a2a3ba" d="M 198.5,127.5 C 195.15,127.335 191.817,127.502 188.5,128C 191.457,128.279 194.123,129.113 196.5,130.5C 192.837,130.048 189.17,129.548 185.5,129C 185.043,128.586 184.709,128.086 184.5,127.5C 189.318,126.188 193.985,126.188 198.5,127.5 Z"/></g>
<g><path style="opacity:1" fill="#a1a1ba" d="M 264.5,130.5 C 257.713,128.906 251.047,129.239 244.5,131.5C 247.032,128.926 250.199,127.592 254,127.5C 257.81,127.824 261.31,128.824 264.5,130.5 Z"/></g>
<g><path style="opacity:1" fill="#9fa0b8" d="M 266.5,131.5 C 267.289,131.783 267.956,132.283 268.5,133C 264.975,133.179 261.641,133.679 258.5,134.5C 256.692,134.509 255.025,134.009 253.5,133C 258.019,132.825 262.353,132.325 266.5,131.5 Z"/></g>
<g><path style="opacity:1" fill="#8f90ac" d="M 232.5,129.5 C 233.167,133.5 233.833,137.5 234.5,141.5C 234.631,142.376 234.298,143.043 233.5,143.5C 232.507,138.88 232.173,134.214 232.5,129.5 Z"/></g>
<g><path style="opacity:1" fill="#b4b4c7" d="M 193.5,132.5 C 197.721,134.75 202.054,136.916 206.5,139C 205.244,139.417 204.577,140.25 204.5,141.5C 203.751,140.469 203.085,139.302 202.5,138C 199.382,137.127 196.382,135.961 193.5,134.5C 192.227,133.743 192.227,133.077 193.5,132.5 Z"/></g>
<g><path style="opacity:1" fill="#585883" d="M 256.5,136.5 C 252.85,138.992 248.85,140.992 244.5,142.5C 244.5,143.167 244.167,143.5 243.5,143.5C 242.766,142.292 242.433,140.959 242.5,139.5C 244.167,139.5 245.833,139.5 247.5,139.5C 247.5,138.5 247.5,137.5 247.5,136.5C 250.5,136.5 253.5,136.5 256.5,136.5 Z"/></g>
<g><path style="opacity:1" fill="#8f90ac" d="M 244.5,142.5 C 247.028,143.935 249.695,144.935 252.5,145.5C 248.154,145.666 243.821,145.499 239.5,145C 240.745,144.209 242.078,143.709 243.5,143.5C 244.167,143.5 244.5,143.167 244.5,142.5 Z"/></g>
<g><path style="opacity:1" fill="#6a6b91" d="M 202.5,145.5 C 196.797,145.375 191.13,145.708 185.5,146.5C 188.526,144.981 191.859,144.315 195.5,144.5C 198.025,144.503 200.359,144.837 202.5,145.5 Z"/></g>
<g><path style="opacity:1" fill="#9d9eb7" d="M 255.5,145.5 C 257.967,145.755 259.967,146.755 261.5,148.5C 259.033,148.245 257.033,147.245 255.5,145.5 Z"/></g>
<g><path style="opacity:1" fill="#b3b3c6" d="M 201.5,154.5 C 200.688,155.993 199.355,156.66 197.5,156.5C 196.006,156.291 194.839,155.624 194,154.5C 190.368,156.777 186.535,157.444 182.5,156.5C 182.624,155.893 182.957,155.56 183.5,155.5C 183.735,156.097 184.235,156.43 185,156.5C 188.743,155.364 192.41,154.03 196,152.5C 197.563,153.102 197.396,153.935 195.5,155C 197.545,155.49 199.545,155.323 201.5,154.5 Z"/></g>
<g><path style="opacity:1" fill="#8181a2" d="M 203.5,153.5 C 205.537,154.213 207.871,154.213 210.5,153.5C 212.807,155.262 212.807,156.595 210.5,157.5C 208.367,155.993 206.033,154.66 203.5,153.5 Z"/></g>
<g><path style="opacity:1" fill="#c5c7e1" d="M 353.5,143.5 C 353.638,148.414 352.972,153.081 351.5,157.5C 351.362,152.586 352.028,147.919 353.5,143.5 Z"/></g>
<g><path style="opacity:1" fill="#664346" d="M 259.5,157.5 C 257.564,159.978 255.564,159.978 253.5,157.5C 254.5,157.5 255.5,157.5 256.5,157.5C 256.717,153.94 257.717,153.94 259.5,157.5 Z"/></g>
<g><path style="opacity:1" fill="#f38615" d="M 271.5,155.5 C 286.656,158.328 299.823,164.994 311,175.5C 311.667,176.167 311.667,176.833 311,177.5C 284.26,206.079 252.094,225.746 214.5,236.5C 213.808,230.823 212.975,225.156 212,219.5C 209.569,199.974 213.735,182.307 224.5,166.5C 225.233,168.294 226.233,169.961 227.5,171.5C 225.214,173.947 225.214,176.28 227.5,178.5C 225.962,180.243 224.962,182.243 224.5,184.5C 223.661,185.641 222.994,186.974 222.5,188.5C 223.602,189.176 224.602,189.842 225.5,190.5C 225.5,190.833 225.5,191.167 225.5,191.5C 224.521,192.765 223.521,194.099 222.5,195.5C 224.345,196.395 225.678,195.728 226.5,193.5C 230.417,190.012 233.083,185.679 234.5,180.5C 235.167,176.5 235.833,172.5 236.5,168.5C 237.164,170.487 238.331,172.154 240,173.5C 241.098,167.112 242.598,167.112 244.5,173.5C 245.115,179.495 246.448,179.829 248.5,174.5C 249.698,177.426 250.698,180.426 251.5,183.5C 251.427,185.027 252.094,186.027 253.5,186.5C 253.461,187.756 253.961,188.756 255,189.5C 255.167,186.667 255.333,183.833 255.5,181C 255.714,176.867 255.048,173.034 253.5,169.5C 253.573,167.973 252.906,166.973 251.5,166.5C 250.559,164.228 249.226,162.228 247.5,160.5C 249.216,159.029 251.216,158.029 253.5,157.5C 255.564,159.978 257.564,159.978 259.5,157.5C 264.658,160.126 269.992,161.46 275.5,161.5C 273.722,159.736 272.389,157.736 271.5,155.5 Z"/></g>
<g><path style="opacity:1" fill="#784c3f" d="M 253.5,157.5 C 251.216,158.029 249.216,159.029 247.5,160.5C 246.711,160.217 246.044,159.717 245.5,159C 246.833,158.667 248.167,158.333 249.5,158C 249.043,157.586 248.709,157.086 248.5,156.5C 250.439,155.366 252.105,155.7 253.5,157.5 Z"/></g>
<g><path style="opacity:1" fill="#959bc8" d="M 330.5,164.5 C 326.285,166.436 321.619,167.103 316.5,166.5C 321.064,165.784 325.731,165.117 330.5,164.5 Z"/></g>
<g><path style="opacity:1" fill="#6d4743" d="M 227.5,171.5 C 226.233,169.961 225.233,168.294 224.5,166.5C 224.369,165.624 224.702,164.957 225.5,164.5C 226.173,166.689 227.173,168.689 228.5,170.5C 228.376,171.107 228.043,171.44 227.5,171.5 Z"/></g>
<g><path style="opacity:1" fill="#7d4d3d" d="M 251.5,166.5 C 252.906,166.973 253.573,167.973 253.5,169.5C 252.094,169.027 251.427,168.027 251.5,166.5 Z"/></g>
<g><path style="opacity:1" fill="#f38719" d="M 219.5,166.5 C 213.609,174.619 209.609,183.619 207.5,193.5C 205.77,197.883 204.77,202.55 204.5,207.5C 204.5,217.833 204.5,228.167 204.5,238.5C 200.594,239.94 196.427,240.606 192,240.5C 189.071,240.475 186.571,239.809 184.5,238.5C 184.482,230.149 184.815,221.816 185.5,213.5C 187.538,209.06 189.204,204.393 190.5,199.5C 196.275,185.06 205.941,174.06 219.5,166.5 Z"/></g>
<g><path style="opacity:1" fill="#674444" d="M 236.5,168.5 C 235.833,172.5 235.167,176.5 234.5,180.5C 234.174,176.116 234.508,171.783 235.5,167.5C 236.107,167.624 236.44,167.957 236.5,168.5 Z"/></g>
<g><path style="opacity:1" fill="#313c94" d="M 353.5,143.5 C 352.028,147.919 351.362,152.586 351.5,157.5C 351.664,160.187 351.497,162.854 351,165.5C 350.124,167.635 348.624,168.969 346.5,169.5C 346.655,166.284 345.655,163.617 343.5,161.5C 343.483,159.972 342.816,159.472 341.5,160C 335.404,165.409 332.737,172.242 333.5,180.5C 332.155,179.653 331.155,178.487 330.5,177C 329.5,176.333 328.5,176.333 327.5,177C 325.28,179.713 323.28,182.546 321.5,185.5C 319.122,187.878 317.122,190.545 315.5,193.5C 305.005,203.828 294.339,213.994 283.5,224C 274.44,230.725 265.107,237.058 255.5,243C 244.367,249.15 233.033,254.817 221.5,260C 209.748,263.352 198.081,266.519 186.5,269.5C 185.5,269.5 184.5,269.5 183.5,269.5C 173.952,270.058 164.619,269.058 155.5,266.5C 150.3,264.131 147.133,260.131 146,254.5C 145.07,247.996 145.736,241.662 148,235.5C 153.344,225.474 159.677,216.141 167,207.5C 171.739,202.256 176.905,197.59 182.5,193.5C 183.167,193.5 183.5,193.833 183.5,194.5C 177.583,200.669 172.916,207.669 169.5,215.5C 166.945,219.704 165.612,224.37 165.5,229.5C 165.316,232.205 165.983,234.538 167.5,236.5C 168.932,241 171.932,244 176.5,245.5C 177.347,246.966 178.68,247.8 180.5,248C 187.826,248.5 195.159,248.666 202.5,248.5C 206.525,248.37 210.191,247.37 213.5,245.5C 218.441,244.014 223.441,242.681 228.5,241.5C 232.936,240.586 236.936,238.919 240.5,236.5C 244.039,234.649 247.706,232.982 251.5,231.5C 253.967,231.245 255.967,230.245 257.5,228.5C 278.513,216.732 297.68,202.399 315,185.5C 318.18,181.655 321.347,177.822 324.5,174C 324.355,173.228 324.022,172.561 323.5,172C 321.167,171 318.833,170 316.5,169C 315.226,168.023 315.226,167.189 316.5,166.5C 321.619,167.103 326.285,166.436 330.5,164.5C 332.622,160.945 334.122,157.278 335,153.5C 330.597,151.476 326.097,149.642 321.5,148C 317.664,145.788 317.664,143.454 321.5,141C 329.5,140.667 337.5,140.333 345.5,140C 348.416,135.08 352.082,130.747 356.5,127C 357.793,126.51 359.127,126.343 360.5,126.5C 360.477,128.927 359.977,131.26 359,133.5C 356.909,136.74 355.076,140.074 353.5,143.5 Z"/></g>
<g><path style="opacity:1" fill="#8a8fc2" d="M 343.5,161.5 C 345.655,163.617 346.655,166.284 346.5,169.5C 345.129,167.064 344.129,164.397 343.5,161.5 Z"/></g>
<g><path style="opacity:1" fill="#ad642e" d="M 244.5,173.5 C 245.222,173.918 245.722,174.584 246,175.5C 246.601,173.641 247.434,173.308 248.5,174.5C 246.448,179.829 245.115,179.495 244.5,173.5 Z"/></g>
<g><path style="opacity:1" fill="#5b3e49" d="M 253.5,169.5 C 255.048,173.034 255.714,176.867 255.5,181C 255.333,183.833 255.167,186.667 255,189.5C 253.961,188.756 253.461,187.756 253.5,186.5C 254.651,180.985 254.651,175.318 253.5,169.5 Z"/></g>
<g><path style="opacity:1" fill="#82503c" d="M 251.5,183.5 C 252.906,183.973 253.573,184.973 253.5,186.5C 252.094,186.027 251.427,185.027 251.5,183.5 Z"/></g>
<g><path style="opacity:1" fill="#ffe374" d="M 342.5,183.5 C 343.995,183.415 344.995,184.081 345.5,185.5C 341.423,188.407 339.089,192.407 338.5,197.5C 337.5,197.167 336.833,196.5 336.5,195.5C 337.898,193.87 338.898,192.036 339.5,190C 337.193,189.221 335.193,189.721 333.5,191.5C 332.5,191.167 331.833,190.5 331.5,189.5C 334.298,188.031 337.298,187.198 340.5,187C 341.823,186.184 342.489,185.017 342.5,183.5 Z"/></g>
<g><path style="opacity:1" fill="#b2662d" d="M 225.5,190.5 C 224.602,189.842 223.602,189.176 222.5,188.5C 222.994,186.974 223.661,185.641 224.5,184.5C 224.351,185.552 224.517,186.552 225,187.5C 226.333,186.167 227.667,184.833 229,183.5C 228.915,186.336 227.749,188.669 225.5,190.5 Z"/></g>
<g><path style="opacity:1" fill="#53ade4" d="M 321.5,185.5 C 323.79,191.412 326.623,197.079 330,202.5C 338.06,226.574 335.56,249.407 322.5,271C 319.725,270.626 317.058,269.626 314.5,268C 312.946,266.108 311.112,264.608 309,263.5C 305.959,266.71 302.792,269.71 299.5,272.5C 296.444,273.296 293.444,274.296 290.5,275.5C 294.649,276.809 298.649,276.809 302.5,275.5C 305.156,274.842 307.822,274.175 310.5,273.5C 313.442,273.854 316.275,274.52 319,275.5C 319.167,275.833 319.333,276.167 319.5,276.5C 305.111,286.429 291.445,285.429 278.5,273.5C 271.338,283.051 262.005,285.885 250.5,282C 245.806,280.138 241.806,277.305 238.5,273.5C 231.9,278.8 224.567,282.467 216.5,284.5C 213.833,284.833 211.167,285.167 208.5,285.5C 206.833,284.5 205.5,283.167 204.5,281.5C 250.388,263.268 287.388,233.935 315.5,193.5C 317.122,190.545 319.122,187.878 321.5,185.5 Z"/></g>
<g><path style="opacity:1" fill="#7980b9" d="M 183.5,194.5 C 183.5,193.833 183.167,193.5 182.5,193.5C 184.528,190.281 187.195,188.114 190.5,187C 187.933,189.396 185.6,191.896 183.5,194.5 Z"/></g>
<g><path style="opacity:1" fill="#664345" d="M 225.5,191.5 C 225.328,192.492 225.662,193.158 226.5,193.5C 225.678,195.728 224.345,196.395 222.5,195.5C 223.521,194.099 224.521,192.765 225.5,191.5 Z"/></g>
<g><path style="opacity:1" fill="#fcc187" d="M 190.5,199.5 C 189.204,204.393 187.538,209.06 185.5,213.5C 186.009,208.297 187.676,203.63 190.5,199.5 Z"/></g>
<g><path style="opacity:1" fill="#ffe272" d="M 348.5,192.5 C 354.711,195.067 355.711,198.9 351.5,204C 347.131,206.462 343.631,205.629 341,201.5C 340.219,200.056 340.386,198.723 341.5,197.5C 343.433,204.119 346.933,205.119 352,200.5C 352.667,199.167 352.667,197.833 352,196.5C 350.373,195.468 349.207,194.134 348.5,192.5 Z"/></g>
<g><path style="opacity:1" fill="#925836" d="M 207.5,193.5 C 207.23,198.45 206.23,203.117 204.5,207.5C 204.77,202.55 205.77,197.883 207.5,193.5 Z"/></g>
<g><path style="opacity:1" fill="#3870c0" d="M 315.5,193.5 C 287.388,233.935 250.388,263.268 204.5,281.5C 200.651,277.81 197.317,273.643 194.5,269C 191.843,268.825 189.176,268.992 186.5,269.5C 198.081,266.519 209.748,263.352 221.5,260C 233.033,254.817 244.367,249.15 255.5,243C 265.107,237.058 274.44,230.725 283.5,224C 294.339,213.994 305.005,203.828 315.5,193.5 Z"/></g>
<g><path style="opacity:1" fill="#ffe270" d="M 356.5,204.5 C 357.376,204.369 358.043,204.702 358.5,205.5C 356.879,209.244 354.879,212.744 352.5,216C 355.899,215.716 358.732,214.216 361,211.5C 362.188,212.563 362.688,213.897 362.5,215.5C 358.059,215.919 354.226,217.586 351,220.5C 351.178,215.955 352.678,211.788 355.5,208C 352.174,208.167 349.507,209.667 347.5,212.5C 346.585,211.672 345.919,210.672 345.5,209.5C 349.516,208.393 353.182,206.726 356.5,204.5 Z"/></g>
<g><path style="opacity:1" fill="#ffe379" d="M 361.5,218.5 C 362.5,218.5 363.5,218.5 364.5,218.5C 365.167,221.5 365.833,224.5 366.5,227.5C 362.073,227.551 357.907,228.551 354,230.5C 352.604,227.702 351.77,224.702 351.5,221.5C 354.276,221.089 354.943,221.922 353.5,224C 354.248,227.939 355.915,228.439 358.5,225.5C 357.572,224.232 357.405,222.899 358,221.5C 359.188,222.563 359.688,223.897 359.5,225.5C 360.833,225.5 362.167,225.5 363.5,225.5C 363.532,222.924 362.865,220.591 361.5,218.5 Z"/></g>
<g><path style="opacity:1" fill="#faba78" d="M 185.5,213.5 C 184.815,221.816 184.482,230.149 184.5,238.5C 183.835,235.518 183.502,232.352 183.5,229C 183.379,223.589 184.046,218.423 185.5,213.5 Z"/></g>
<g><path style="opacity:1" fill="#c5c8e1" d="M 169.5,215.5 C 167.775,222.349 167.109,229.349 167.5,236.5C 165.983,234.538 165.316,232.205 165.5,229.5C 165.612,224.37 166.945,219.704 169.5,215.5 Z"/></g>
<g><path style="opacity:1" fill="#8085bd" d="M 257.5,228.5 C 255.967,230.245 253.967,231.245 251.5,231.5C 253.033,229.755 255.033,228.755 257.5,228.5 Z"/></g>
<g><path style="opacity:1" fill="#8287be" d="M 240.5,236.5 C 236.936,238.919 232.936,240.586 228.5,241.5C 232.064,239.081 236.064,237.414 240.5,236.5 Z"/></g>
<g><path style="opacity:1" fill="#ffe26f" d="M 361.5,231.5 C 366.039,230.539 368.372,232.373 368.5,237C 366.733,242.55 363.066,244.384 357.5,242.5C 354.857,239.734 353.857,236.401 354.5,232.5C 355.873,232.343 357.207,232.51 358.5,233C 356.582,234.77 356.082,236.937 357,239.5C 359.925,242.059 362.925,242.059 366,239.5C 366.667,237.5 366.667,235.5 366,233.5C 364.989,232.663 363.822,232.33 362.5,232.5C 361.955,236.172 361.622,235.838 361.5,231.5 Z"/></g>
<g><path style="opacity:1" fill="#6f75b4" d="M 213.5,245.5 C 210.191,247.37 206.525,248.37 202.5,248.5C 202.5,248.167 202.5,247.833 202.5,247.5C 206.076,246.515 209.742,245.848 213.5,245.5 Z"/></g>
<g><path style="opacity:1" fill="#a7abd1" d="M 176.5,245.5 C 185.026,247.336 193.693,248.003 202.5,247.5C 202.5,247.833 202.5,248.167 202.5,248.5C 195.159,248.666 187.826,248.5 180.5,248C 178.68,247.8 177.347,246.966 176.5,245.5 Z"/></g>
<g><path style="opacity:1" fill="#ffe378" d="M 367.5,245.5 C 369.048,245.821 369.715,246.821 369.5,248.5C 368.167,248.5 366.833,248.5 365.5,248.5C 365.5,250.833 365.5,253.167 365.5,255.5C 366.822,255.67 367.989,255.337 369,254.5C 369.781,255.944 369.614,257.277 368.5,258.5C 363.973,256.405 359.639,254.072 355.5,251.5C 359.682,249.674 363.682,247.674 367.5,245.5 Z"/></g>
<g><path style="opacity:1" fill="#fffcf3" d="M 360.5,250.5 C 361.5,250.5 362.5,250.5 363.5,250.5C 363.5,251.5 363.5,252.5 363.5,253.5C 361.692,253.509 360.025,253.009 358.5,252C 359.416,251.722 360.082,251.222 360.5,250.5 Z"/></g>
<g><path style="opacity:1" fill="#dfeffa" d="M 252.5,261.5 C 256.286,261.393 259.286,262.893 261.5,266C 266.788,267.257 271.454,266.091 275.5,262.5C 279.672,264.537 284.006,266.204 288.5,267.5C 279.508,268.837 270.508,269.671 261.5,270C 259.017,268.674 256.517,267.507 254,266.5C 251.192,267.386 248.359,267.553 245.5,267C 247.903,265.147 250.236,263.314 252.5,261.5 Z"/></g>
<g><path style="opacity:1" fill="#747ab6" d="M 155.5,266.5 C 164.619,269.058 173.952,270.058 183.5,269.5C 177.347,270.653 171.014,270.82 164.5,270C 161.135,269.495 158.135,268.328 155.5,266.5 Z"/></g>
<g><path style="opacity:1" fill="#ffe271" d="M 365.5,266.5 C 366.748,267.334 367.415,268.667 367.5,270.5C 367.564,272.389 367.064,274.056 366,275.5C 362.105,273.517 358.105,272.851 354,273.5C 353.219,272.056 353.386,270.723 354.5,269.5C 357.897,271.522 361.564,272.522 365.5,272.5C 365.5,270.5 365.5,268.5 365.5,266.5 Z"/></g>
<g><path style="opacity:1" fill="#b3dbf3" d="M 299.5,272.5 C 298.653,273.966 297.32,274.8 295.5,275C 297.81,275.497 300.143,275.663 302.5,275.5C 298.649,276.809 294.649,276.809 290.5,275.5C 293.444,274.296 296.444,273.296 299.5,272.5 Z"/></g>
<g><path style="opacity:1" fill="#ffe272" d="M 170.5,274.5 C 177.613,274.034 180.613,277.367 179.5,284.5C 178.448,284.649 177.448,284.483 176.5,284C 178.271,277.606 175.938,275.44 169.5,277.5C 167.396,279.583 167.062,281.917 168.5,284.5C 169.325,285.386 170.325,285.719 171.5,285.5C 171.281,284.325 171.614,283.325 172.5,282.5C 173.429,283.689 173.762,285.022 173.5,286.5C 167.275,287.771 164.775,285.104 166,278.5C 167.397,276.93 168.897,275.596 170.5,274.5 Z"/></g>
<g><path style="opacity:1" fill="#ffe272" d="M 352.5,275.5 C 353.552,275.351 354.552,275.517 355.5,276C 353.996,277.337 352.996,279.004 352.5,281C 355.599,283.24 357.599,282.406 358.5,278.5C 358.88,280.021 359.046,281.687 359,283.5C 361.478,284.804 362.978,283.97 363.5,281C 362.057,278.922 362.724,278.089 365.5,278.5C 365.101,281.696 364.101,284.696 362.5,287.5C 358.776,285.3 354.943,284.3 351,284.5C 350.749,281.406 351.249,278.406 352.5,275.5 Z"/></g>
<g><path style="opacity:1" fill="#58b0e5" d="M 210.5,287.5 C 216.176,287.666 221.843,287.499 227.5,287C 228.737,286.768 229.737,286.268 230.5,285.5C 233.219,285.603 235.885,285.269 238.5,284.5C 252.698,292.393 266.865,292.393 281,284.5C 287.088,288.974 293.921,291.474 301.5,292C 282.624,305.559 261.791,309.392 239,303.5C 228.182,300.345 218.682,295.012 210.5,287.5 Z"/></g>
<g><path style="opacity:1" fill="#ffe273" d="M 349.5,285.5 C 352.825,288.832 355.825,292.499 358.5,296.5C 353.533,297.662 348.533,297.829 343.5,297C 344.211,295.745 345.044,294.579 346,293.5C 347.353,294.704 349.019,295.371 351,295.5C 352.5,295.333 354,295.167 355.5,295C 352.198,292.146 350.198,288.98 349.5,285.5 Z"/></g>
<g><path style="opacity:1" fill="#c6e4f6" d="M 216.5,284.5 C 216.082,285.222 215.416,285.722 214.5,286C 219.854,286.529 225.187,286.362 230.5,285.5C 229.737,286.268 228.737,286.768 227.5,287C 221.843,287.499 216.176,287.666 210.5,287.5C 209.833,286.833 209.167,286.167 208.5,285.5C 211.167,285.167 213.833,284.833 216.5,284.5 Z"/></g>
<g><path style="opacity:1" fill="#ffe270" d="M 174.5,287.5 C 180.028,286.069 183.362,288.069 184.5,293.5C 182.084,300.805 177.918,302.138 172,297.5C 169.712,293.318 170.545,289.984 174.5,287.5 Z"/></g>
<g><path style="opacity:1" fill="#fffdf8" d="M 176.5,288.5 C 182.983,289.934 183.983,293.1 179.5,298C 174,299.167 171.833,297 173,291.5C 174.145,290.364 175.312,289.364 176.5,288.5 Z"/></g>
<g><path style="opacity:1" fill="#ffe16b" d="M 186.5,297.5 C 187.837,298.315 188.837,299.482 189.5,301C 185.836,302.002 182.669,303.836 180,306.5C 179.91,308.768 181.077,310.268 183.5,311C 182.975,311.692 182.308,312.192 181.5,312.5C 179.6,310.381 177.934,308.047 176.5,305.5C 179.504,304.649 182.504,302.982 185.5,300.5C 186.386,299.675 186.719,298.675 186.5,297.5 Z"/></g>
<g><path style="opacity:1" fill="#ffe270" d="M 339.5,303.5 C 344.297,303.866 348.963,304.866 353.5,306.5C 352.318,308.645 350.818,308.645 349,306.5C 347.954,308.09 346.787,309.59 345.5,311C 346.167,312.333 347.167,313.333 348.5,314C 347.953,314.925 347.287,315.758 346.5,316.5C 343.892,312.281 341.558,307.948 339.5,303.5 Z"/></g>
<g><path style="opacity:1" fill="#fffcf1" d="M 342.5,305.5 C 346.541,305.574 347.208,306.907 344.5,309.5C 343.295,308.423 342.628,307.09 342.5,305.5 Z"/></g>
<g><path style="opacity:1" fill="#ffe271" d="M 192.5,307.5 C 197.208,309.713 199.041,313.379 198,318.5C 192.262,324.156 187.429,323.323 183.5,316C 185.833,314.333 188.167,312.667 190.5,311C 191.823,310.184 192.489,309.017 192.5,307.5 Z"/></g>
<g><path style="opacity:1" fill="#fffefa" d="M 192.5,310.5 C 196.254,311.828 197.421,314.494 196,318.5C 192.312,321.454 189.145,320.954 186.5,317C 188.706,314.963 190.706,312.797 192.5,310.5 Z"/></g>
<g><path style="opacity:1" fill="#ffe271" d="M 332.5,312.5 C 336.908,312.062 338.575,314.062 337.5,318.5C 339.857,318.337 342.19,318.503 344.5,319C 341.7,320.232 338.7,320.899 335.5,321C 336.551,322.385 337.884,323.385 339.5,324C 338.667,324.833 337.833,325.667 337,326.5C 334.754,322.585 331.588,319.752 327.5,318C 328.843,315.768 330.51,313.934 332.5,312.5 Z"/></g>
<g><path style="opacity:1" fill="#fffbef" d="M 332.5,314.5 C 337.073,314.976 337.573,316.642 334,319.5C 330.372,318.453 329.872,316.786 332.5,314.5 Z"/></g>
<g><path style="opacity:1" fill="#ffe271" d="M 201.5,317.5 C 204.245,318.738 206.579,320.571 208.5,323C 208.37,324.059 207.87,324.892 207,325.5C 206.596,322.057 204.929,320.724 202,321.5C 201.221,323.906 202.054,325.573 204.5,326.5C 202.671,327.282 201.171,326.616 200,324.5C 196.647,327.892 197.48,330.059 202.5,331C 201.975,331.692 201.308,332.192 200.5,332.5C 197.804,331.149 195.47,329.316 193.5,327C 197.469,324.869 200.136,321.703 201.5,317.5 Z"/></g>
<g><path style="opacity:1" fill="#ffe16e" d="M 324.5,319.5 C 329.74,320.413 329.74,321.413 324.5,322.5C 326.297,325.795 328.63,328.628 331.5,331C 330.667,331.833 329.833,332.667 329,333.5C 328.099,330.929 326.766,328.596 325,326.5C 323.89,324.963 322.39,324.297 320.5,324.5C 320.649,325.552 320.483,326.552 320,327.5C 318.77,326.725 318.437,325.725 319,324.5C 321.191,323.167 323.024,321.5 324.5,319.5 Z"/></g>
<g><path style="opacity:1" fill="#ffe582" d="M 210.5,324.5 C 211.15,324.804 211.817,325.137 212.5,325.5C 213.327,329.459 213.827,333.459 214,337.5C 215.5,335.333 217,333.167 218.5,331C 218.167,330.667 217.833,330.333 217.5,330C 219.076,329.612 220.409,330.112 221.5,331.5C 218.364,334.429 215.697,337.762 213.5,341.5C 212.914,341.291 212.414,340.957 212,340.5C 211.667,336.5 211.333,332.5 211,328.5C 209.5,330.833 208,333.167 206.5,335.5C 206.709,336.086 207.043,336.586 207.5,337C 205.799,337.345 204.466,336.678 203.5,335C 207.208,332.417 209.541,328.917 210.5,324.5 Z"/></g>
<g><path style="opacity:1" fill="#ffe272" d="M 222.5,332.5 C 223.496,332.414 224.329,332.748 225,333.5C 226.156,337.123 227.156,340.789 228,344.5C 229.898,341.44 231.064,338.44 231.5,335.5C 232.672,335.919 233.672,336.585 234.5,337.5C 231.917,340.997 229.584,344.664 227.5,348.5C 226.025,344.602 224.858,340.602 224,336.5C 222.744,338.754 221.577,341.088 220.5,343.5C 220.709,344.086 221.043,344.586 221.5,345C 219.924,345.388 218.591,344.888 217.5,343.5C 220.53,340.441 222.197,336.774 222.5,332.5 Z"/></g>
<g><path style="opacity:1" fill="#ffe375" d="M 307.5,331.5 C 309.355,335.478 311.689,339.312 314.5,343C 311.755,345.725 310.755,345.725 311.5,343C 309.932,340.696 308.765,338.196 308,335.5C 307.502,338.482 307.335,341.482 307.5,344.5C 303.862,344.262 301.029,342.596 299,339.5C 299.284,342.899 300.784,345.732 303.5,348C 302.5,348.5 301.5,349 300.5,349.5C 299.17,346.172 297.836,342.838 296.5,339.5C 293.833,338.5 293.833,337.5 296.5,336.5C 299.472,338.306 302.305,340.306 305,342.5C 305.003,338.533 305.836,334.866 307.5,331.5 Z"/></g>
<g><path style="opacity:1" fill="#ffe26f" d="M 268.5,343.5 C 271.304,342.362 274.304,342.195 277.5,343C 278.866,345.382 278.533,347.548 276.5,349.5C 277.032,351.741 278.365,353.241 280.5,354C 277.358,353.912 274.858,352.412 273,349.5C 272.257,351.441 272.424,353.274 273.5,355C 269.433,356.256 268.433,355.089 270.5,351.5C 270.196,348.614 269.529,345.948 268.5,343.5 Z"/></g>
<g><path style="opacity:1" fill="#ffe270" d="M 235.5,338.5 C 236.849,337.203 238.182,337.37 239.5,339C 237.16,343.171 235.827,347.337 235.5,351.5C 234.5,351 233.5,350.5 232.5,350C 234.28,346.913 235.614,343.58 236.5,340C 236.43,339.235 236.097,338.735 235.5,338.5 Z"/></g>
<g><path style="opacity:1" fill="#fffcf4" d="M 271.5,343.5 C 273.948,343.01 275.615,343.843 276.5,346C 275.381,347.876 273.714,348.709 271.5,348.5C 271.5,346.833 271.5,345.167 271.5,343.5 Z"/></g>
<g><path style="opacity:1" fill="#ffe273" d="M 243.5,340.5 C 246.32,340.248 248.986,340.748 251.5,342C 252.731,343.183 252.731,344.349 251.5,345.5C 250.614,344.675 250.281,343.675 250.5,342.5C 248.143,342.337 245.81,342.503 243.5,343C 240.735,349.369 242.735,352.536 249.5,352.5C 249.52,350.857 248.853,349.524 247.5,348.5C 249.185,347.491 250.518,347.991 251.5,350C 251.023,352.371 249.523,353.537 247,353.5C 240.977,352.808 238.977,349.474 241,343.5C 242.045,342.627 242.878,341.627 243.5,340.5 Z"/></g>
<g><path style="opacity:1" fill="#ffe374" d="M 258.5,341.5 C 265.427,341.999 267.927,345.666 266,352.5C 261.648,356.665 257.648,356.331 254,351.5C 253.077,347.017 254.577,343.683 258.5,341.5 Z"/></g>
<g><path style="opacity:1" fill="#fffdf8" d="M 258.5,343.5 C 260.722,343.178 262.556,343.845 264,345.5C 265.741,353.531 263.074,355.531 256,351.5C 255.023,348.183 255.856,345.516 258.5,343.5 Z"/></g>
<g><path style="opacity:1" fill="#ffe375" d="M 285.5,339.5 C 286.675,339.281 287.675,339.614 288.5,340.5C 290.817,344.146 293.484,347.48 296.5,350.5C 295.277,351.614 293.944,351.781 292.5,351C 293.833,350.333 293.833,349.667 292.5,349C 288.453,347.852 286.453,349.352 286.5,353.5C 285.448,353.649 284.448,353.483 283.5,353C 284.675,348.611 285.341,344.111 285.5,339.5 Z"/></g>
<g><path style="opacity:1" fill="#fffbee" d="M 287.5,342.5 C 288.479,343.765 289.479,345.099 290.5,346.5C 289.311,347.429 287.978,347.762 286.5,347.5C 286.366,345.708 286.699,344.042 287.5,342.5 Z"/></g>
<g><path style="opacity:1" fill="#4075c3" d="M 169.5,378.5 C 171.39,378.297 172.89,378.963 174,380.5C 174.667,391.833 174.667,403.167 174,414.5C 171.565,417.228 169.565,416.894 168,413.5C 161.091,418.639 156.424,416.972 154,408.5C 152.354,401.477 153.854,395.311 158.5,390C 161.85,389.07 164.683,389.903 167,392.5C 167.333,388.5 167.667,384.5 168,380.5C 168.717,379.956 169.217,379.289 169.5,378.5 Z"/></g>
<g><path style="opacity:1" fill="#4075c3" d="M 104.5,380.5 C 113.535,379.589 117.368,383.589 116,392.5C 114.994,395.89 112.994,396.89 110,395.5C 109.503,393.19 109.337,390.857 109.5,388.5C 106.675,388.081 104.509,389.081 103,391.5C 100.115,397.012 99.9487,402.512 102.5,408C 104.925,408.986 106.591,408.319 107.5,406C 103.649,403.286 103.649,400.619 107.5,398C 111.225,397.24 114.892,397.407 118.5,398.5C 120.464,395.43 122.798,392.597 125.5,390C 134.358,388.846 139.025,392.846 139.5,402C 139.148,406.389 137.982,410.556 136,414.5C 129.772,419.232 124.772,418.232 121,411.5C 120.08,408.899 119.413,406.232 119,403.5C 116.103,405.772 114.103,408.772 113,412.5C 110.058,417.153 105.891,418.653 100.5,417C 96.7458,414.56 94.5791,411.06 94,406.5C 91.7639,395.349 95.2639,386.683 104.5,380.5 Z"/></g>
<g><path style="opacity:1" fill="#3c73c2" d="M 239.5,398.5 C 239.461,399.756 239.961,400.756 241,401.5C 241.499,396.511 241.666,391.511 241.5,386.5C 243.151,380.342 245.651,380.009 249,385.5C 249.667,392.167 249.667,398.833 249,405.5C 248.627,409.285 247.461,412.785 245.5,416C 242.364,417.041 239.864,416.207 238,413.5C 235.806,409.251 233.806,404.918 232,400.5C 231.727,405.229 231.061,409.896 230,414.5C 228.867,416.211 227.367,416.711 225.5,416C 221.443,405.153 221.61,394.319 226,383.5C 228.667,379.5 231.333,379.5 234,383.5C 236.332,388.332 238.166,393.332 239.5,398.5 Z"/></g>
<g><path style="opacity:1" fill="#4a7bc5" d="M 256.5,381.5 C 257.833,381.5 259.167,381.5 260.5,381.5C 260.838,385.151 259.172,386.817 255.5,386.5C 255.366,384.708 255.699,383.042 256.5,381.5 Z"/></g>
<g><path style="opacity:1" fill="#4075c3" d="M 146.5,381.5 C 147.822,381.33 148.989,381.663 150,382.5C 150.667,393.5 150.667,404.5 150,415.5C 148.604,417.527 146.938,417.86 145,416.5C 143.013,410.868 142.179,405.034 142.5,399C 141.68,392.551 143.014,386.718 146.5,381.5 Z"/></g>
<g><path style="opacity:1" fill="#4276c3" d="M 185.5,387.5 C 194.42,387.893 197.586,392.227 195,400.5C 192.278,403.444 189.111,405.777 185.5,407.5C 187.074,408.631 188.741,408.798 190.5,408C 192.01,407.15 193.51,406.317 195,405.5C 198.158,408.2 197.991,411.033 194.5,414C 183.504,418.541 177.837,414.708 177.5,402.5C 177.623,396.068 180.29,391.068 185.5,387.5 Z"/></g>
<g><path style="opacity:1" fill="#4075c2" d="M 272.5,388.5 C 275.97,387.875 278.804,388.875 281,391.5C 282.667,388.833 284.333,388.833 286,391.5C 286.816,400.879 286.483,410.213 285,419.5C 282.499,430.333 276.333,433.5 266.5,429C 264.771,427.211 264.104,425.044 264.5,422.5C 268.163,423.112 271.83,423.279 275.5,423C 277.377,420.769 278.21,418.269 278,415.5C 270.861,418.359 266.528,416.026 265,408.5C 263.883,400.413 266.383,393.747 272.5,388.5 Z"/></g>
<g><path style="opacity:1" fill="#3e74c2" d="M 365.5,388.5 C 369.224,387.773 371.891,389.106 373.5,392.5C 375.085,390.794 376.918,389.461 379,388.5C 380.261,388.759 381.261,389.426 382,390.5C 383.594,397.726 383.928,405.06 383,412.5C 382.729,416.13 381.062,417.13 378,415.5C 377.956,409.327 377.289,403.327 376,397.5C 375.085,398.328 374.419,399.328 374,400.5C 373.667,404.167 373.333,407.833 373,411.5C 372.636,414.249 371.303,416.249 369,417.5C 368.055,417.095 367.388,416.428 367,415.5C 366.667,410.167 366.333,404.833 366,399.5C 364.605,398.185 363.605,398.519 363,400.5C 362.667,405.5 362.333,410.5 362,415.5C 360.333,418.167 358.667,418.167 357,415.5C 355.399,407.605 355.066,399.605 356,391.5C 357.444,389.845 359.278,389.178 361.5,389.5C 361.351,390.552 361.517,391.552 362,392.5C 363.376,391.295 364.542,389.962 365.5,388.5 Z"/></g>
<g><path style="opacity:1" fill="#4276c3" d="M 201.5,388.5 C 203.912,388.244 205.579,389.244 206.5,391.5C 209.625,389.649 212.958,389.149 216.5,390C 217.701,390.903 218.535,392.069 219,393.5C 219.912,400.649 219.245,407.649 217,414.5C 215.276,417.73 213.276,418.064 211,415.5C 210.5,410.988 210.667,406.488 211.5,402C 211.577,399.949 211.077,398.116 210,396.5C 209.085,397.328 208.419,398.328 208,399.5C 207.934,404.982 207.101,410.316 205.5,415.5C 202.871,417.05 201.037,416.384 200,413.5C 199.333,405.833 199.333,398.167 200,390.5C 200.717,389.956 201.217,389.289 201.5,388.5 Z"/></g>
<g><path style="opacity:1" fill="#4377c3" d="M 256.5,389.5 C 258.911,389.137 260.411,390.137 261,392.5C 261.667,398.833 261.667,405.167 261,411.5C 260.359,413.813 259.026,415.48 257,416.5C 255.268,416.266 254.434,415.266 254.5,413.5C 253.409,406.864 253.243,400.198 254,393.5C 254.662,392.016 255.496,390.683 256.5,389.5 Z"/></g>
<g><path style="opacity:1" fill="#3d73c2" d="M 295.5,389.5 C 301.392,388.073 305.559,390.073 308,395.5C 309.171,402.132 308.338,408.465 305.5,414.5C 301.915,417.845 297.915,418.345 293.5,416C 291.683,414.2 290.516,412.034 290,409.5C 289.333,405.167 289.333,400.833 290,396.5C 291.371,393.734 293.204,391.401 295.5,389.5 Z"/></g>
<g><path style="opacity:1" fill="#4276c3" d="M 332.5,397.5 C 332.5,396.167 332.5,394.833 332.5,393.5C 337.584,387.322 343.084,386.989 349,392.5C 352.291,399.824 353.291,407.491 352,415.5C 349.099,418.318 346.599,417.984 344.5,414.5C 333.951,418.657 330.117,415.323 333,404.5C 336.294,401.603 340.128,399.936 344.5,399.5C 344.523,396.879 343.189,395.545 340.5,395.5C 338.523,396.46 336.523,397.46 334.5,398.5C 333.817,398.137 333.15,397.804 332.5,397.5 Z"/></g>
<g><path style="opacity:1" fill="#3d74c2" d="M 330.5,393.5 C 330.5,394.833 330.5,396.167 330.5,397.5C 328.49,398.693 326.324,398.693 324,397.5C 322.395,398.101 321.062,399.101 320,400.5C 318.776,405.386 318.109,410.386 318,415.5C 314.55,418.226 312.55,417.226 312,412.5C 311.203,405.45 311.37,398.45 312.5,391.5C 315.767,390.008 317.934,391.008 319,394.5C 322.568,389.611 326.401,389.277 330.5,393.5 Z"/></g>
<g><path style="opacity:1" fill="#8fafdc" d="M 241.5,386.5 C 241.666,391.511 241.499,396.511 241,401.5C 239.961,400.756 239.461,399.756 239.5,398.5C 240.167,394.5 240.833,390.5 241.5,386.5 Z"/></g>
<g><path style="opacity:1" fill="#ebf0f8" d="M 186.5,394.5 C 191.754,395.735 191.754,397.401 186.5,399.5C 185.566,397.905 185.566,396.239 186.5,394.5 Z"/></g>
<g><path style="opacity:1" fill="#9ab6df" d="M 330.5,393.5 C 331.167,393.5 331.833,393.5 332.5,393.5C 332.5,394.833 332.5,396.167 332.5,397.5C 331.833,397.5 331.167,397.5 330.5,397.5C 330.5,396.167 330.5,394.833 330.5,393.5 Z"/></g>
<g><path style="opacity:1" fill="#edf2f9" d="M 298.5,396.5 C 299.496,396.414 300.329,396.748 301,397.5C 303,401.5 303,405.5 301,409.5C 299.286,410.925 297.953,410.592 297,408.5C 295.994,404.198 296.494,400.198 298.5,396.5 Z"/></g>
<g><path style="opacity:1" fill="#f0f4fa" d="M 128.5,396.5 C 131.736,397.794 133.069,400.294 132.5,404C 132.955,406.923 131.955,409.09 129.5,410.5C 125.975,406.13 125.642,401.464 128.5,396.5 Z"/></g>
<g><path style="opacity:1" fill="#f3f6fb" d="M 274.5,396.5 C 279.473,398.812 280.64,402.479 278,407.5C 273.822,410.493 271.655,409.326 271.5,404C 271.548,401.078 272.548,398.578 274.5,396.5 Z"/></g>
<g><path style="opacity:1" fill="#f7f9fc" d="M 161.5,397.5 C 166.183,399.21 167.683,402.543 166,407.5C 164.216,410.003 162.549,410.003 161,407.5C 160.253,404.076 160.42,400.743 161.5,397.5 Z"/></g>
<g><path style="opacity:1" fill="#edf1f9" d="M 341.5,405.5 C 342.5,405.5 343.5,405.5 344.5,405.5C 344.143,409.395 342.143,410.395 338.5,408.5C 339.34,407.265 340.34,406.265 341.5,405.5 Z"/></g>
</svg>
