<?xml version="1.0" encoding="UTF-8"?>
<!DOCTYPE svg PUBLIC "-//W3C//DTD SVG 1.1//EN" "http://www.w3.org/Graphics/SVG/1.1/DTD/svg11.dtd">
<svg xmlns="http://www.w3.org/2000/svg" version="1.1" width="500px" height="500px" style="shape-rendering:geometricPrecision; text-rendering:geometricPrecision; image-rendering:optimizeQuality; fill-rule:evenodd; clip-rule:evenodd" xmlns:xlink="http://www.w3.org/1999/xlink">
<g><path style="opacity:1" fill="#2194fe" d="M -0.5,-0.5 C 166.167,-0.5 332.833,-0.5 499.5,-0.5C 499.5,166.167 499.5,332.833 499.5,499.5C 332.833,499.5 166.167,499.5 -0.5,499.5C -0.5,332.833 -0.5,166.167 -0.5,-0.5 Z"/></g>
<g><path style="opacity:1" fill="#143d69" d="M 314.5,72.5 C 319.179,72.3342 323.845,72.5008 328.5,73C 330.325,74.4659 330.825,76.2992 330,78.5C 320.201,87.9529 309.035,95.4529 296.5,101C 298.037,104.711 299.37,108.545 300.5,112.5C 299.722,114.147 298.556,115.48 297,116.5C 295.97,120.773 295.303,125.106 295,129.5C 293.308,131.245 291.475,131.578 289.5,130.5C 287.825,125.143 286.158,119.809 284.5,114.5C 281.302,113.654 278.135,112.654 275,111.5C 265.332,114.875 255.499,117.542 245.5,119.5C 245.5,122.167 245.5,124.833 245.5,127.5C 241.979,127.17 238.979,125.67 236.5,123C 234.527,122.505 232.527,122.338 230.5,122.5C 230.67,121.178 230.337,120.011 229.5,119C 224.608,116.724 219.941,114.224 215.5,111.5C 216.348,110.009 217.681,109.342 219.5,109.5C 224.734,110.97 230.067,111.637 235.5,111.5C 235.528,109.418 234.861,107.584 233.5,106C 235.614,104.482 237.947,104.149 240.5,105C 242.265,106.298 244.099,107.464 246,108.5C 250.855,106.655 255.355,104.155 259.5,101C 257.33,99.4138 254.996,98.0804 252.5,97C 241.201,93.7876 229.867,90.7876 218.5,88C 215.085,86.8567 214.751,85.19 217.5,83C 228.513,82.8756 239.513,83.3756 250.5,84.5C 252.167,84.3333 253.833,84.1667 255.5,84C 258.547,80.8742 262.047,80.0409 266,81.5C 266.49,82.7932 266.657,84.1266 266.5,85.5C 274.477,86.4899 282.477,86.6565 290.5,86C 299.08,82.2182 307.08,77.7182 314.5,72.5 Z"/></g>
<g><path style="opacity:1" fill="#fedf00" d="M 198.5,163.5 C 200.317,162.781 200.984,161.781 200.5,160.5C 205.454,161.625 210.454,162.125 215.5,162C 213.102,160.476 210.769,158.976 208.5,157.5C 211.366,154.479 214.7,151.979 218.5,150C 238.2,148.254 257.867,146.254 277.5,144C 271.303,141.867 264.969,140.2 258.5,139C 277.435,136.857 295.435,140.19 312.5,149C 300.067,149.429 287.734,150.762 275.5,153C 272.057,153.404 270.724,155.071 271.5,158C 276.334,159.731 281.334,160.731 286.5,161C 302.858,162.019 319.192,163.352 335.5,165C 344.277,173.603 351.277,183.437 356.5,194.5C 356.291,195.086 355.957,195.586 355.5,196C 342.333,199.195 329,201.528 315.5,203C 313.023,204.643 310.69,206.476 308.5,208.5C 303.344,203.175 298.344,197.675 293.5,192C 287.839,188.288 282.672,188.788 278,193.5C 274.9,190.4 271.733,187.233 268.5,184C 273.085,182.415 277.752,181.082 282.5,180C 285.124,179.424 285.791,178.09 284.5,176C 277.888,174.673 271.222,173.673 264.5,173C 241.175,171.507 217.842,170.174 194.5,169C 196.464,167.549 197.797,165.716 198.5,163.5 Z"/></g>
<g><path style="opacity:1" fill="#163f69" d="M 205.5,155.5 C 206.29,156.401 207.29,157.068 208.5,157.5C 210.769,158.976 213.102,160.476 215.5,162C 210.454,162.125 205.454,161.625 200.5,160.5C 200.984,161.781 200.317,162.781 198.5,163.5C 197.167,163.833 195.833,164.167 194.5,164.5C 192.801,164.34 191.134,164.506 189.5,165C 189.833,165.333 190.167,165.667 190.5,166C 189.315,167.353 187.981,168.52 186.5,169.5C 187.005,170.919 188.005,171.585 189.5,171.5C 194.383,174.263 198.383,177.929 201.5,182.5C 201.893,184.284 202.559,185.95 203.5,187.5C 205.125,193.031 205.791,198.697 205.5,204.5C 204.167,203.167 202.833,201.833 201.5,200.5C 201.267,198.938 200.6,197.605 199.5,196.5C 198.74,192.919 198.24,189.252 198,185.5C 197.283,186.044 196.783,186.711 196.5,187.5C 196.103,188.525 195.437,188.692 194.5,188C 193.601,186.348 192.601,184.848 191.5,183.5C 191.808,181.076 191.474,178.743 190.5,176.5C 187.965,177.503 185.798,176.837 184,174.5C 182.97,176.588 182.137,178.755 181.5,181C 181.639,182.301 182.305,183.134 183.5,183.5C 183.877,185.258 184.544,186.925 185.5,188.5C 183.671,189.282 182.171,188.616 181,186.5C 180.536,187.094 180.369,187.761 180.5,188.5C 179.549,189.919 179.216,191.585 179.5,193.5C 179.5,195.167 179.5,196.833 179.5,198.5C 179.5,199.5 179.5,200.5 179.5,201.5C 179.17,211.581 179.837,221.581 181.5,231.5C 181.263,232.791 181.596,233.791 182.5,234.5C 182.5,235.5 182.5,236.5 182.5,237.5C 182.369,238.376 182.702,239.043 183.5,239.5C 190.481,231.351 197.648,223.351 205,215.5C 204.443,217.841 204.61,220.174 205.5,222.5C 206.892,221.395 208.059,220.061 209,218.5C 211.897,224.627 215.064,230.627 218.5,236.5C 220.5,233.833 222.5,231.167 224.5,228.5C 226.984,230.483 229.317,232.65 231.5,235C 229.833,235.333 228.167,235.667 226.5,236C 232.455,240.647 239.122,243.314 246.5,244C 240.062,237.568 234.395,230.568 229.5,223C 237.283,213.547 245.449,204.381 254,195.5C 253.501,198.518 253.668,201.518 254.5,204.5C 257.112,203.221 259.445,201.555 261.5,199.5C 262.992,205.393 263.825,211.393 264,217.5C 265,215.167 266,212.833 267,210.5C 269.781,217.62 271.948,224.953 273.5,232.5C 272.448,232.351 271.448,232.517 270.5,233C 273.511,236.656 277.178,238.989 281.5,240C 276.85,235.426 275.35,229.926 277,223.5C 277.519,222.484 278.353,221.818 279.5,221.5C 284.484,223.314 288.818,226.148 292.5,230C 291.167,230.333 289.833,230.667 288.5,231C 294.553,234.863 300.886,237.863 307.5,240C 304.283,236.483 300.783,233.316 297,230.5C 291.727,221.563 286.06,212.897 280,204.5C 279.652,202.077 280.818,201.077 283.5,201.5C 284.5,201.833 285.5,202.167 286.5,202.5C 290.599,209.044 294.932,215.377 299.5,221.5C 300.5,220.167 301.5,218.833 302.5,217.5C 306.513,221.515 310.179,225.848 313.5,230.5C 312.738,230.911 311.738,231.077 310.5,231C 314.504,235.175 319.17,238.342 324.5,240.5C 324.833,240.167 325.167,239.833 325.5,239.5C 319.139,233.277 314.139,226.111 310.5,218C 310.93,216.566 311.764,215.399 313,214.5C 314.205,219.884 316.371,220.551 319.5,216.5C 324.758,224.011 329.258,232.011 333,240.5C 335.028,244.212 337.861,246.712 341.5,248C 337.809,243.827 336.642,238.993 338,233.5C 345.167,240 352.333,246.5 359.5,253C 360.745,253.791 362.078,254.291 363.5,254.5C 364.5,254.5 365.5,254.5 366.5,254.5C 366.833,254.5 367.167,254.5 367.5,254.5C 373.652,256.539 379.985,258.372 386.5,260C 360.665,255.739 334.665,252.405 308.5,250C 253.618,245.954 199.285,249.287 145.5,260C 153.687,257.382 162.02,255.382 170.5,254C 172.821,252.097 172.487,250.597 169.5,249.5C 169.804,248.85 170.137,248.183 170.5,247.5C 168.88,244.596 167.547,241.596 166.5,238.5C 166.167,237.5 165.5,236.833 164.5,236.5C 153.914,212.567 147.08,187.567 144,161.5C 139.403,167.443 136.236,174.109 134.5,181.5C 133.914,181.291 133.414,180.957 133,180.5C 133.497,188.802 133.497,197.136 133,205.5C 120.445,186.125 123.279,169.625 141.5,156C 139.101,155.289 136.768,155.456 134.5,156.5C 133.263,152.799 131.93,152.966 130.5,157C 127.246,158.027 124.246,159.527 121.5,161.5C 120.702,159.922 120.202,158.256 120,156.5C 118.725,158.717 117.725,161.051 117,163.5C 114,165.833 111,168.167 108,170.5C 108.851,162.626 111.684,155.459 116.5,149C 123.826,148.5 131.159,148.334 138.5,148.5C 136.384,143.035 135.051,137.368 134.5,131.5C 137.911,132.36 141.244,133.526 144.5,135C 142.998,135.583 141.665,136.416 140.5,137.5C 142.019,139.556 142.853,141.89 143,144.5C 144.659,137.994 148.159,132.827 153.5,129C 161.2,127.819 168.533,128.819 175.5,132C 169.291,133.96 162.957,135.293 156.5,136C 157.328,136.915 158.328,137.581 159.5,138C 156.823,142.033 153.156,144.366 148.5,145C 149.308,145.308 149.975,145.808 150.5,146.5C 149.5,148.5 148.5,150.5 147.5,152.5C 158.363,155.93 169.03,159.93 179.5,164.5C 180.327,160.541 180.827,156.541 181,152.5C 181.414,152.043 181.914,151.709 182.5,151.5C 184.968,152.803 187.301,154.303 189.5,156C 188.207,156.49 186.873,156.657 185.5,156.5C 185.373,158.915 185.207,161.249 185,163.5C 187.921,159.908 191.421,157.075 195.5,155C 198.849,154.612 202.183,154.779 205.5,155.5 Z"/></g>
<g><path style="opacity:1" fill="#1f8df3" d="M 155.5,159.5 C 156.598,160.601 156.765,161.934 156,163.5C 153.667,165.833 151.333,168.167 149,170.5C 147.344,167.247 147.177,163.913 148.5,160.5C 151.533,163.35 153.867,163.016 155.5,159.5 Z"/></g>
<g><path style="opacity:1" fill="#2091f8" d="M 159.5,167.5 C 161.814,169.477 164.147,171.477 166.5,173.5C 167.275,167.804 168.275,167.471 169.5,172.5C 169.392,173.442 169.059,174.275 168.5,175C 164,176.833 160.833,180 159,184.5C 157.915,189.437 157.248,194.437 157,199.5C 153.866,190.597 151.032,181.597 148.5,172.5C 152.342,170.975 156.009,169.308 159.5,167.5 Z"/></g>
<g><path style="opacity:1" fill="#2588e4" d="M 194.5,164.5 C 192.42,166.573 190.754,168.907 189.5,171.5C 188.005,171.585 187.005,170.919 186.5,169.5C 187.981,168.52 189.315,167.353 190.5,166C 190.167,165.667 189.833,165.333 189.5,165C 191.134,164.506 192.801,164.34 194.5,164.5 Z"/></g>
<g><path style="opacity:1" fill="#3094f5" d="M 189.5,171.5 C 213.558,173.835 237.558,176.335 261.5,179C 241.543,180.831 221.543,181.998 201.5,182.5C 198.383,177.929 194.383,174.263 189.5,171.5 Z"/></g>
<g><path style="opacity:1" fill="#208ef2" d="M 191.5,183.5 C 188.833,183.5 186.167,183.5 183.5,183.5C 182.305,183.134 181.639,182.301 181.5,181C 182.137,178.755 182.97,176.588 184,174.5C 185.798,176.837 187.965,177.503 190.5,176.5C 191.474,178.743 191.808,181.076 191.5,183.5 Z"/></g>
<g><path style="opacity:1" fill="#f2a923" d="M 367.5,254.5 C 367.167,254.5 366.833,254.5 366.5,254.5C 352.388,237.22 337.388,220.72 321.5,205C 319.833,204.333 318.167,204.333 316.5,205C 313.729,207.358 311.063,209.858 308.5,212.5C 302.616,205.905 296.616,199.405 290.5,193C 285.154,191.348 280.987,192.848 278,197.5C 274.131,193.966 270.631,190.133 267.5,186C 262.886,183.598 258.719,184.098 255,187.5C 246,197.833 237,208.167 228,218.5C 224.535,214.033 220.702,209.867 216.5,206C 214.635,204.699 212.635,204.365 210.5,205C 200.625,214.374 191.292,224.207 182.5,234.5C 181.596,233.791 181.263,232.791 181.5,231.5C 189.725,222.729 197.725,213.729 205.5,204.5C 209.662,202.032 213.995,201.865 218.5,204C 221.784,207.405 224.95,210.905 228,214.5C 236.129,204.702 244.629,195.202 253.5,186C 236.833,186.166 220.167,186.666 203.5,187.5C 202.559,185.95 201.893,184.284 201.5,182.5C 221.543,181.998 241.543,180.831 261.5,179C 237.558,176.335 213.558,173.835 189.5,171.5C 190.754,168.907 192.42,166.573 194.5,164.5C 195.833,164.167 197.167,163.833 198.5,163.5C 197.797,165.716 196.464,167.549 194.5,169C 217.842,170.174 241.175,171.507 264.5,173C 271.222,173.673 277.888,174.673 284.5,176C 285.791,178.09 285.124,179.424 282.5,180C 277.752,181.082 273.085,182.415 268.5,184C 271.733,187.233 274.9,190.4 278,193.5C 282.672,188.788 287.839,188.288 293.5,192C 298.344,197.675 303.344,203.175 308.5,208.5C 310.69,206.476 313.023,204.643 315.5,203C 329,201.528 342.333,199.195 355.5,196C 355.957,195.586 356.291,195.086 356.5,194.5C 351.277,183.437 344.277,173.603 335.5,165C 319.192,163.352 302.858,162.019 286.5,161C 281.334,160.731 276.334,159.731 271.5,158C 270.724,155.071 272.057,153.404 275.5,153C 287.734,150.762 300.067,149.429 312.5,149C 295.435,140.19 277.435,136.857 258.5,139C 264.969,140.2 271.303,141.867 277.5,144C 257.867,146.254 238.2,148.254 218.5,150C 214.7,151.979 211.366,154.479 208.5,157.5C 207.29,157.068 206.29,156.401 205.5,155.5C 209.463,152.18 213.796,149.346 218.5,147C 234.146,145.667 249.813,144.501 265.5,143.5C 255.763,142.471 246.097,141.137 236.5,139.5C 265.715,131.312 293.382,134.812 319.5,150C 318.5,150.333 317.5,150.667 316.5,151C 309.935,151.606 303.602,152.939 297.5,155C 310.68,158.1 324.013,160.766 337.5,163C 348.556,173.176 356.223,185.176 360.5,199C 353.802,200.335 347.136,201.668 340.5,203C 348.682,204.596 356.848,206.096 365,207.5C 368.613,222.996 369.447,238.663 367.5,254.5 Z"/></g>
<g><path style="opacity:1" fill="#2492f9" d="M 177.5,188.5 C 176.599,189.29 175.932,190.29 175.5,191.5C 176.241,194.691 175.574,197.691 173.5,200.5C 171.589,200.574 170.422,201.574 170,203.5C 168.296,208.726 167.13,214.059 166.5,219.5C 164.108,215.722 161.941,211.722 160,207.5C 158.85,205.246 158.516,202.913 159,200.5C 162.43,195.641 164.763,190.307 166,184.5C 166.333,185.167 166.667,185.833 167,186.5C 170.394,179.074 174.228,178.741 178.5,185.5C 177.873,186.417 177.539,187.417 177.5,188.5 Z"/></g>
<g><path style="opacity:1" fill="#2bb8dd" d="M 307.5,216.5 C 308.239,216.631 308.906,216.464 309.5,216C 311.461,213.037 313.794,210.371 316.5,208C 318.167,207.333 319.833,207.333 321.5,208C 335.707,223.371 349.707,238.871 363.5,254.5C 362.078,254.291 360.745,253.791 359.5,253C 352.333,246.5 345.167,240 338,233.5C 336.642,238.993 337.809,243.827 341.5,248C 337.861,246.712 335.028,244.212 333,240.5C 329.258,232.011 324.758,224.011 319.5,216.5C 316.371,220.551 314.205,219.884 313,214.5C 311.764,215.399 310.93,216.566 310.5,218C 314.139,226.111 319.139,233.277 325.5,239.5C 325.167,239.833 324.833,240.167 324.5,240.5C 319.17,238.342 314.504,235.175 310.5,231C 311.738,231.077 312.738,230.911 313.5,230.5C 310.179,225.848 306.513,221.515 302.5,217.5C 301.5,218.833 300.5,220.167 299.5,221.5C 294.932,215.377 290.599,209.044 286.5,202.5C 285.5,202.167 284.5,201.833 283.5,201.5C 280.818,201.077 279.652,202.077 280,204.5C 286.06,212.897 291.727,221.563 297,230.5C 300.783,233.316 304.283,236.483 307.5,240C 300.886,237.863 294.553,234.863 288.5,231C 289.833,230.667 291.167,230.333 292.5,230C 288.818,226.148 284.484,223.314 279.5,221.5C 278.353,221.818 277.519,222.484 277,223.5C 275.35,229.926 276.85,235.426 281.5,240C 277.178,238.989 273.511,236.656 270.5,233C 271.448,232.517 272.448,232.351 273.5,232.5C 271.948,224.953 269.781,217.62 267,210.5C 266,212.833 265,215.167 264,217.5C 263.825,211.393 262.992,205.393 261.5,199.5C 259.445,201.555 257.112,203.221 254.5,204.5C 253.668,201.518 253.501,198.518 254,195.5C 245.449,204.381 237.283,213.547 229.5,223C 234.395,230.568 240.062,237.568 246.5,244C 239.122,243.314 232.455,240.647 226.5,236C 228.167,235.667 229.833,235.333 231.5,235C 229.317,232.65 226.984,230.483 224.5,228.5C 222.5,231.167 220.5,233.833 218.5,236.5C 215.064,230.627 211.897,224.627 209,218.5C 208.059,220.061 206.892,221.395 205.5,222.5C 204.61,220.174 204.443,217.841 205,215.5C 197.648,223.351 190.481,231.351 183.5,239.5C 182.702,239.043 182.369,238.376 182.5,237.5C 191.967,227.865 201.3,218.031 210.5,208C 212.635,207.365 214.635,207.699 216.5,209C 219.965,213.467 223.798,217.633 228,221.5C 238.383,209.905 248.883,198.405 259.5,187C 261.167,186.333 262.833,186.333 264.5,187C 268.652,192.119 273.152,196.952 278,201.5C 280.167,199.333 282.333,197.167 284.5,195C 286.635,194.365 288.635,194.699 290.5,196C 296.779,202.434 302.445,209.268 307.5,216.5 Z"/></g>
<g><path style="opacity:1" fill="#f0a921" d="M 183.5,183.5 C 186.167,183.5 188.833,183.5 191.5,183.5C 192.601,184.848 193.601,186.348 194.5,188C 195.437,188.692 196.103,188.525 196.5,187.5C 197.468,189.607 197.802,191.941 197.5,194.5C 196.167,194.5 194.833,194.5 193.5,194.5C 190.167,194.167 186.833,193.833 183.5,193.5C 182.791,192.596 181.791,192.263 180.5,192.5C 180.5,191.167 180.5,189.833 180.5,188.5C 180.369,187.761 180.536,187.094 181,186.5C 182.171,188.616 183.671,189.282 185.5,188.5C 184.544,186.925 183.877,185.258 183.5,183.5 Z"/></g>
<g><path style="opacity:1" fill="#fedf00" d="M 205.5,204.5 C 205.791,198.697 205.125,193.031 203.5,187.5C 220.167,186.666 236.833,186.166 253.5,186C 244.629,195.202 236.129,204.702 228,214.5C 224.95,210.905 221.784,207.405 218.5,204C 213.995,201.865 209.662,202.032 205.5,204.5 Z"/></g>
<g><path style="opacity:1" fill="#9b8547" d="M 177.5,188.5 C 177.715,190.179 177.048,191.179 175.5,191.5C 175.932,190.29 176.599,189.29 177.5,188.5 Z"/></g>
<g><path style="opacity:1" fill="#847f5d" d="M 180.5,188.5 C 180.5,189.833 180.5,191.167 180.5,192.5C 181.791,192.263 182.791,192.596 183.5,193.5C 182.167,193.5 180.833,193.5 179.5,193.5C 179.216,191.585 179.549,189.919 180.5,188.5 Z"/></g>
<g><path style="opacity:1" fill="#787355" d="M 199.5,196.5 C 198.833,196.5 198.167,196.5 197.5,196.5C 196.167,195.833 194.833,195.167 193.5,194.5C 194.833,194.5 196.167,194.5 197.5,194.5C 197.802,191.941 197.468,189.607 196.5,187.5C 196.783,186.711 197.283,186.044 198,185.5C 198.24,189.252 198.74,192.919 199.5,196.5 Z"/></g>
<g><path style="opacity:1" fill="#3995f1" d="M 179.5,193.5 C 180.833,193.5 182.167,193.5 183.5,193.5C 186.833,193.833 190.167,194.167 193.5,194.5C 194.833,195.167 196.167,195.833 197.5,196.5C 191.699,197.682 185.699,198.348 179.5,198.5C 179.5,196.833 179.5,195.167 179.5,193.5 Z"/></g>
<g><path style="opacity:1" fill="#3a97ef" d="M 366.5,254.5 C 365.5,254.5 364.5,254.5 363.5,254.5C 349.707,238.871 335.707,223.371 321.5,208C 319.833,207.333 318.167,207.333 316.5,208C 313.794,210.371 311.461,213.037 309.5,216C 308.906,216.464 308.239,216.631 307.5,216.5C 302.445,209.268 296.779,202.434 290.5,196C 288.635,194.699 286.635,194.365 284.5,195C 282.333,197.167 280.167,199.333 278,201.5C 273.152,196.952 268.652,192.119 264.5,187C 262.833,186.333 261.167,186.333 259.5,187C 248.883,198.405 238.383,209.905 228,221.5C 223.798,217.633 219.965,213.467 216.5,209C 214.635,207.699 212.635,207.365 210.5,208C 201.3,218.031 191.967,227.865 182.5,237.5C 182.5,236.5 182.5,235.5 182.5,234.5C 191.292,224.207 200.625,214.374 210.5,205C 212.635,204.365 214.635,204.699 216.5,206C 220.702,209.867 224.535,214.033 228,218.5C 237,208.167 246,197.833 255,187.5C 258.719,184.098 262.886,183.598 267.5,186C 270.631,190.133 274.131,193.966 278,197.5C 280.987,192.848 285.154,191.348 290.5,193C 296.616,199.405 302.616,205.905 308.5,212.5C 311.063,209.858 313.729,207.358 316.5,205C 318.167,204.333 319.833,204.333 321.5,205C 337.388,220.72 352.388,237.22 366.5,254.5 Z"/></g>
<g><path style="opacity:1" fill="#f6fcfd" d="M 263.5,188.5 C 273.419,200.148 282.752,212.314 291.5,225C 290.833,225.667 290.167,225.667 289.5,225C 285.866,220.314 281.199,217.981 275.5,218C 274.576,219.489 273.576,219.656 272.5,218.5C 268.881,208.691 265.881,198.691 263.5,188.5 Z"/></g>
<g><path style="opacity:1" fill="#edf9fc" d="M 307.5,216.5 C 308.366,218.144 308.866,219.811 309,221.5C 306.651,218.983 304.151,216.65 301.5,214.5C 300.833,215.5 300.167,216.5 299.5,217.5C 294.556,211.126 290.223,204.292 286.5,197C 287.167,196.333 287.833,196.333 288.5,197C 294.338,204.004 300.671,210.504 307.5,216.5 Z"/></g>
<g><path style="opacity:1" fill="#eda829" d="M 197.5,196.5 C 198.167,196.5 198.833,196.5 199.5,196.5C 200.6,197.605 201.267,198.938 201.5,200.5C 194.183,201.118 186.849,201.451 179.5,201.5C 179.5,200.5 179.5,199.5 179.5,198.5C 185.699,198.348 191.699,197.682 197.5,196.5 Z"/></g>
<g><path style="opacity:1" fill="#fadd04" d="M 201.5,200.5 C 202.833,201.833 204.167,203.167 205.5,204.5C 197.725,213.729 189.725,222.729 181.5,231.5C 179.837,221.581 179.17,211.581 179.5,201.5C 186.849,201.451 194.183,201.118 201.5,200.5 Z"/></g>
<g><path style="opacity:1" fill="#eaa72d" d="M 173.5,200.5 C 174.404,201.209 174.737,202.209 174.5,203.5C 173.034,204.347 172.2,205.68 172,207.5C 170.383,213.086 169.216,218.753 168.5,224.5C 167.069,223.22 166.402,221.553 166.5,219.5C 167.13,214.059 168.296,208.726 170,203.5C 170.422,201.574 171.589,200.574 173.5,200.5 Z"/></g>
<g><path style="opacity:1" fill="#f2fafc" d="M 211.5,210.5 C 212.251,209.427 213.251,209.26 214.5,210C 221.873,217.704 228.873,225.704 235.5,234C 231.717,232.252 228.384,229.586 225.5,226C 223.149,226.14 220.816,226.64 218.5,227.5C 216.961,221.434 214.628,215.767 211.5,210.5 Z"/></g>
<g><path style="opacity:1" fill="#fedf00" d="M 327.5,207.5 C 328.274,206.853 329.274,206.52 330.5,206.5C 340.828,207.703 351.161,208.87 361.5,210C 362,210.5 362.5,211 363,211.5C 365.257,223.743 365.924,236.077 365,248.5C 352.634,234.637 340.134,220.971 327.5,207.5 Z"/></g>
<g><path style="opacity:1" fill="#e4cd1b" d="M 174.5,203.5 C 174.667,214.172 174.5,224.839 174,235.5C 171.628,232.09 169.795,228.423 168.5,224.5C 169.216,218.753 170.383,213.086 172,207.5C 172.2,205.68 173.034,204.347 174.5,203.5 Z"/></g>
<g><path style="opacity:1" fill="#effafc" d="M 319.5,208.5 C 327.634,216.802 335.634,225.302 343.5,234C 342.833,234.667 342.167,234.667 341.5,234C 336.539,227.848 334.039,229.015 334,237.5C 329.622,227.484 324.789,217.817 319.5,208.5 Z"/></g>
<g><path style="opacity:1" fill="#919677" d="M 164.5,236.5 C 165.5,236.833 166.167,237.5 166.5,238.5C 165.532,240.607 165.198,242.941 165.5,245.5C 164.523,242.713 164.19,239.713 164.5,236.5 Z"/></g>
<g><path style="opacity:1" fill="#e4a52f" d="M 166.5,238.5 C 167.547,241.596 168.88,244.596 170.5,247.5C 170.137,248.183 169.804,248.85 169.5,249.5C 168.288,250.23 167.288,251.23 166.5,252.5C 165.526,250.257 165.192,247.924 165.5,245.5C 165.198,242.941 165.532,240.607 166.5,238.5 Z"/></g>
<g><path style="opacity:1" fill="#16497d" d="M 239.5,251.5 C 283.537,250.631 327.204,254.131 370.5,262C 336.478,257.998 302.311,255.498 268,254.5C 234.809,254.181 201.809,256.515 169,261.5C 167.833,261.333 166.667,261.167 165.5,261C 170.5,260 175.5,259 180.5,258C 200.279,255.541 219.945,253.375 239.5,251.5 Z"/></g>
<g><path style="opacity:1" fill="#f9fcff" d="M 123.5,280.5 C 128.765,279.571 133.265,280.904 137,284.5C 137.483,285.448 137.649,286.448 137.5,287.5C 134.393,287.826 132.06,286.659 130.5,284C 126.834,282.729 124.334,283.896 123,287.5C 122.333,290.167 122.333,292.833 123,295.5C 126.119,300.767 129.286,300.767 132.5,295.5C 131.311,294.571 129.978,294.238 128.5,294.5C 128.5,293.5 128.5,292.5 128.5,291.5C 131.5,291.5 134.5,291.5 137.5,291.5C 137.5,295.167 137.5,298.833 137.5,302.5C 136.167,302.5 134.833,302.5 133.5,302.5C 133.649,301.448 133.483,300.448 133,299.5C 132.5,300.667 131.667,301.5 130.5,302C 118.975,303.195 114.808,298.029 118,286.5C 119.36,283.977 121.193,281.977 123.5,280.5 Z"/></g>
<g><path style="opacity:1" fill="#f6faff" d="M 146.5,280.5 C 158.99,278.823 164.157,284.156 162,296.5C 161.215,298.286 160.049,299.786 158.5,301C 146.056,305.031 140.223,300.531 141,287.5C 141.967,284.379 143.8,282.046 146.5,280.5 Z"/></g>
<g><path style="opacity:1" fill="#fefeff" d="M 166.5,280.5 C 168.167,280.5 169.833,280.5 171.5,280.5C 171.5,286.5 171.5,292.5 171.5,298.5C 175.167,298.5 178.833,298.5 182.5,298.5C 182.5,299.833 182.5,301.167 182.5,302.5C 177.167,302.5 171.833,302.5 166.5,302.5C 166.5,295.167 166.5,287.833 166.5,280.5 Z"/></g>
<g><path style="opacity:1" fill="#f8fbff" d="M 186.5,280.5 C 191.833,280.5 197.167,280.5 202.5,280.5C 202.5,281.833 202.5,283.167 202.5,284.5C 198.833,284.5 195.167,284.5 191.5,284.5C 191.5,286.167 191.5,287.833 191.5,289.5C 194.833,289.5 198.167,289.5 201.5,289.5C 201.5,290.833 201.5,292.167 201.5,293.5C 198.167,293.5 194.833,293.5 191.5,293.5C 191.5,295.167 191.5,296.833 191.5,298.5C 195.167,298.5 198.833,298.5 202.5,298.5C 202.5,299.833 202.5,301.167 202.5,302.5C 197.167,302.5 191.833,302.5 186.5,302.5C 186.5,295.167 186.5,287.833 186.5,280.5 Z"/></g>
<g><path style="opacity:1" fill="#f7fbff" d="M 206.5,280.5 C 209.365,280.055 211.865,280.722 214,282.5C 216.079,286.993 218.412,291.326 221,295.5C 221.499,290.511 221.666,285.511 221.5,280.5C 223.167,280.5 224.833,280.5 226.5,280.5C 226.5,287.833 226.5,295.167 226.5,302.5C 224.143,302.663 221.81,302.497 219.5,302C 217.127,297.419 214.627,292.919 212,288.5C 211.501,293.155 211.334,297.821 211.5,302.5C 209.833,302.5 208.167,302.5 206.5,302.5C 206.5,295.167 206.5,287.833 206.5,280.5 Z"/></g>
<g><path style="opacity:1" fill="#f1f7ff" d="M 237.5,289.5 C 237.217,288.711 236.717,288.044 236,287.5C 235.501,292.489 235.334,297.489 235.5,302.5C 233.833,302.5 232.167,302.5 230.5,302.5C 230.5,295.167 230.5,287.833 230.5,280.5C 233.119,280.232 235.619,280.565 238,281.5C 240.921,286.341 243.588,291.341 246,296.5C 246.499,291.177 246.666,285.844 246.5,280.5C 248.167,280.5 249.833,280.5 251.5,280.5C 251.5,287.833 251.5,295.167 251.5,302.5C 249.143,302.663 246.81,302.497 244.5,302C 241.774,298.049 239.441,293.882 237.5,289.5 Z"/></g>
<g><path style="opacity:1" fill="#f7fbff" d="M 255.5,280.5 C 257.167,280.5 258.833,280.5 260.5,280.5C 260.5,287.833 260.5,295.167 260.5,302.5C 258.833,302.5 257.167,302.5 255.5,302.5C 255.5,295.167 255.5,287.833 255.5,280.5 Z"/></g>
<g><path style="opacity:1" fill="#f6faff" d="M 275.5,291.5 C 278.5,291.5 281.5,291.5 284.5,291.5C 284.5,295.167 284.5,298.833 284.5,302.5C 282.549,302.773 281.049,302.107 280,300.5C 270.628,304.983 265.461,301.983 264.5,291.5C 265.5,281.815 270.834,278.315 280.5,281C 283.222,282.272 284.556,284.439 284.5,287.5C 281.401,287.908 279.067,286.741 277.5,284C 270.877,284.314 268.377,287.814 270,294.5C 273.01,300.632 276.51,300.965 280.5,295.5C 278.955,294.548 277.288,294.215 275.5,294.5C 275.5,293.5 275.5,292.5 275.5,291.5 Z"/></g>
<g><path style="opacity:1" fill="#f6faff" d="M 294.5,280.5 C 307.755,279.017 312.588,284.683 309,297.5C 305.345,302.275 300.512,303.775 294.5,302C 292,300.833 290.167,299 289,296.5C 287.016,289.66 288.85,284.327 294.5,280.5 Z"/></g>
<g><path style="opacity:1" fill="#f7fbff" d="M 314.5,280.5 C 318.514,280.334 322.514,280.501 326.5,281C 331.115,282.077 332.615,284.91 331,289.5C 330.097,290.701 328.931,291.535 327.5,292C 328.308,292.308 328.975,292.808 329.5,293.5C 330.065,296.508 331.065,299.341 332.5,302C 330.527,302.495 328.527,302.662 326.5,302.5C 327.228,296.908 324.895,293.908 319.5,293.5C 319.5,296.5 319.5,299.5 319.5,302.5C 317.833,302.5 316.167,302.5 314.5,302.5C 314.5,295.167 314.5,287.833 314.5,280.5 Z"/></g>
<g><path style="opacity:1" fill="#f5f9ff" d="M 340.5,280.5 C 342.924,280.192 345.257,280.526 347.5,281.5C 350.444,288.331 352.777,295.331 354.5,302.5C 352.833,302.5 351.167,302.5 349.5,302.5C 349.167,300.5 348.833,298.5 348.5,296.5C 345.813,296.336 343.146,296.503 340.5,297C 340.04,301.217 337.706,303.051 333.5,302.5C 335.826,295.177 338.159,287.844 340.5,280.5 Z"/></g>
<g><path style="opacity:1" fill="#f7faff" d="M 357.5,280.5 C 360.247,280.187 362.914,280.52 365.5,281.5C 366.544,286.684 368.044,291.684 370,296.5C 371.487,291.221 372.653,285.888 373.5,280.5C 376.167,280.5 378.833,280.5 381.5,280.5C 381.5,287.833 381.5,295.167 381.5,302.5C 379.833,302.5 378.167,302.5 376.5,302.5C 376.968,286.845 375.635,286.845 372.5,302.5C 370.5,302.5 368.5,302.5 366.5,302.5C 363.257,282.792 361.924,282.792 362.5,302.5C 360.833,302.5 359.167,302.5 357.5,302.5C 357.5,295.167 357.5,287.833 357.5,280.5 Z"/></g>
<g><path style="opacity:1" fill="#379aff" d="M 149.5,283.5 C 156.726,284.252 159.226,288.252 157,295.5C 154.078,300.233 150.745,300.566 147,296.5C 144.606,291.527 145.44,287.194 149.5,283.5 Z"/></g>
<g><path style="opacity:1" fill="#369aff" d="M 296.5,283.5 C 303.091,283.594 305.924,286.927 305,293.5C 302.367,300.579 298.7,301.246 294,295.5C 292.888,291.019 293.721,287.019 296.5,283.5 Z"/></g>
<g><path style="opacity:1" fill="#359aff" d="M 319.5,284.5 C 321.527,284.338 323.527,284.505 325.5,285C 326.479,289.517 324.479,291.35 319.5,290.5C 319.5,288.5 319.5,286.5 319.5,284.5 Z"/></g>
<g><path style="opacity:1" fill="#4ba3ff" d="M 343.5,285.5 C 344.864,287.22 345.864,289.22 346.5,291.5C 344.833,292.833 343.167,292.833 341.5,291.5C 342.372,289.55 343.039,287.55 343.5,285.5 Z"/></g>
<g><path style="opacity:1" fill="#8ec8ff" d="M 275.5,291.5 C 278.625,290.521 281.958,290.187 285.5,290.5C 285.817,294.702 285.483,298.702 284.5,302.5C 284.5,298.833 284.5,295.167 284.5,291.5C 281.5,291.5 278.5,291.5 275.5,291.5 Z"/></g>
<g><path style="opacity:1" fill="#89c6ff" d="M 237.5,289.5 C 236.833,293.833 236.167,298.167 235.5,302.5C 235.334,297.489 235.501,292.489 236,287.5C 236.717,288.044 237.217,288.711 237.5,289.5 Z"/></g>
<g><path style="opacity:1" fill="#daecff" d="M 188.5,316.5 C 191.685,316.02 194.519,316.686 197,318.5C 197.977,321.259 197.144,323.259 194.5,324.5C 195.128,326.258 196.128,327.758 197.5,329C 196.833,329.667 196.167,329.667 195.5,329C 192.694,323.066 190.694,323.232 189.5,329.5C 188.508,325.217 188.174,320.884 188.5,316.5 Z"/></g>
<g><path style="opacity:1" fill="#fdfeff" d="M 232.5,317.5 C 230.167,317.5 227.833,317.5 225.5,317.5C 225.5,319.167 225.5,320.833 225.5,322.5C 227.5,322.5 229.5,322.5 231.5,322.5C 229.735,323.461 227.735,323.795 225.5,323.5C 225.5,325.167 225.5,326.833 225.5,328.5C 227.857,328.337 230.19,328.503 232.5,329C 229.854,329.497 227.187,329.664 224.5,329.5C 224.5,325.167 224.5,320.833 224.5,316.5C 227.385,316.194 230.052,316.527 232.5,317.5 Z"/></g>
<g><path style="opacity:1" fill="#fefffe" d="M 235.5,316.5 C 236.483,320.298 236.817,324.298 236.5,328.5C 238.527,328.338 240.527,328.505 242.5,329C 240.19,329.497 237.857,329.663 235.5,329.5C 235.5,325.167 235.5,320.833 235.5,316.5 Z"/></g>
<g><path style="opacity:1" fill="#fdfeff" d="M 283.5,317.5 C 281.167,317.5 278.833,317.5 276.5,317.5C 276.5,319.167 276.5,320.833 276.5,322.5C 278.5,322.5 280.5,322.5 282.5,322.5C 280.735,323.461 278.735,323.795 276.5,323.5C 276.5,325.167 276.5,326.833 276.5,328.5C 278.857,328.337 281.19,328.503 283.5,329C 280.854,329.497 278.187,329.664 275.5,329.5C 275.5,325.167 275.5,320.833 275.5,316.5C 278.385,316.194 281.052,316.527 283.5,317.5 Z"/></g>
<g><path style="opacity:1" fill="#deeeff" d="M 203.5,316.5 C 205.411,316.574 206.578,317.574 207,319.5C 208.167,322.5 209.333,325.5 210.5,328.5C 210.167,328.833 209.833,329.167 209.5,329.5C 206.36,324.205 203.36,324.205 200.5,329.5C 200.167,329 199.833,328.5 199.5,328C 201.14,324.244 202.474,320.411 203.5,316.5 Z"/></g>
<g><path style="opacity:1" fill="#dceeff" d="M 176.5,317.5 C 182.565,316.166 184.565,316.166 182.5,317.5C 181.833,333.5 181.167,333.5 180.5,317.5C 179.167,317.5 177.833,317.5 176.5,317.5 Z"/></g>
<g><path style="opacity:1" fill="#2a97ff" d="M 190.5,318.5 C 192.167,318.5 193.833,318.5 195.5,318.5C 195.5,319.833 195.5,321.167 195.5,322.5C 193.833,322.5 192.167,322.5 190.5,322.5C 190.5,321.167 190.5,319.833 190.5,318.5 Z"/></g>
<g><path style="opacity:1" fill="#89c5ff" d="M 232.5,317.5 C 230.735,318.461 228.735,318.795 226.5,318.5C 226.5,319.5 226.5,320.5 226.5,321.5C 228.415,321.216 230.081,321.549 231.5,322.5C 229.5,322.5 227.5,322.5 225.5,322.5C 225.5,320.833 225.5,319.167 225.5,317.5C 227.833,317.5 230.167,317.5 232.5,317.5 Z"/></g>
<g><path style="opacity:1" fill="#d9ecff" d="M 264.5,316.5 C 267.908,315.828 270.575,316.828 272.5,319.5C 271.426,320.08 270.426,319.58 269.5,318C 265.663,317 263.663,318.5 263.5,322.5C 263.86,326.808 266.193,328.308 270.5,327C 271.337,325.989 271.67,324.822 271.5,323.5C 270.448,323.649 269.448,323.483 268.5,323C 270.134,322.506 271.801,322.34 273.5,322.5C 273.808,324.924 273.474,327.257 272.5,329.5C 269.998,329.379 267.332,329.212 264.5,329C 260.565,324.837 260.565,320.67 264.5,316.5 Z"/></g>
<g><path style="opacity:1" fill="#89c5ff" d="M 283.5,317.5 C 281.735,318.461 279.735,318.795 277.5,318.5C 277.5,319.5 277.5,320.5 277.5,321.5C 279.415,321.216 281.081,321.549 282.5,322.5C 280.5,322.5 278.5,322.5 276.5,322.5C 276.5,320.833 276.5,319.167 276.5,317.5C 278.833,317.5 281.167,317.5 283.5,317.5 Z"/></g>
<g><path style="opacity:1" fill="#dfefff" d="M 312.5,316.5 C 314.686,317.823 316.186,319.823 317,322.5C 318.252,320.999 319.252,319.332 320,317.5C 320.654,316.304 321.154,316.304 321.5,317.5C 319.348,321.22 318.015,325.22 317.5,329.5C 316.317,324.983 314.65,320.649 312.5,316.5 Z"/></g>
<g><path style="opacity:1" fill="#3a9dff" d="M 204.5,319.5 C 205.931,320.78 206.598,322.447 206.5,324.5C 202.247,324.88 201.58,323.213 204.5,319.5 Z"/></g>
<g><path style="opacity:1" fill="#eaf4ff" d="M 253.5,316.5 C 255.335,317.122 256.502,318.456 257,320.5C 258.318,323.43 258.985,326.43 259,329.5C 257.812,328.437 257.312,327.103 257.5,325.5C 253.807,324.944 251.14,326.278 249.5,329.5C 250.323,325.339 251.657,321.006 253.5,316.5 Z"/></g>
<g><path style="opacity:1" fill="#40a0ff" d="M 253.5,319.5 C 255.185,320.184 256.185,321.517 256.5,323.5C 255.167,324.833 253.833,324.833 252.5,323.5C 253.246,322.264 253.579,320.93 253.5,319.5 Z"/></g>
<g><path style="opacity:1" fill="#eff7ff" d="M 286.5,316.5 C 287.496,316.414 288.329,316.748 289,317.5C 290.752,320.672 292.752,323.672 295,326.5C 295.333,323.167 295.667,319.833 296,316.5C 296.828,320.871 296.661,325.205 295.5,329.5C 292.768,326.384 290.268,323.051 288,319.5C 287.667,322.833 287.333,326.167 287,329.5C 286.501,325.179 286.334,320.846 286.5,316.5 Z"/></g>
<g><path style="opacity:1" fill="#ddeeff" d="M 301.5,316.5 C 303.857,316.337 306.19,316.503 308.5,317C 309.167,318 309.833,319 310.5,320C 308.533,319.76 306.7,318.927 305,317.5C 300.24,319.633 299.407,322.8 302.5,327C 305.419,327.54 308.086,327.207 310.5,326C 307.108,330.42 303.608,330.587 300,326.5C 299.037,322.851 299.537,319.518 301.5,316.5 Z"/></g>
<g><path style="opacity:1" fill="#e4f1ff" d="M 211.5,317.5 C 212.077,316.227 212.743,316.227 213.5,317.5C 214.765,320.796 215.932,324.129 217,327.5C 218.405,323.783 219.905,320.117 221.5,316.5C 221.411,320.491 220.411,324.491 218.5,328.5C 217.675,329.386 216.675,329.719 215.5,329.5C 214.739,325.216 213.405,321.216 211.5,317.5 Z"/></g>
</svg>
