<?xml version="1.0" standalone="no"?>
<!DOCTYPE svg PUBLIC "-//W3C//DTD SVG 20010904//EN"
 "http://www.w3.org/TR/2001/REC-SVG-20010904/DTD/svg10.dtd">
<svg version="1.0" xmlns="http://www.w3.org/2000/svg"
 width="500.000000pt" height="500.000000pt" viewBox="0 0 500.000000 500.000000"
 preserveAspectRatio="xMidYMid meet">

<g transform="translate(0.000000,500.000000) scale(0.100000,-0.100000)"
fill="#000000" stroke="none">
<path d="M3148 4270 c-15 -4 -42 -19 -60 -32 -18 -14 -70 -44 -116 -67 -82
-42 -84 -43 -160 -36 -113 9 -128 13 -142 40 -17 31 -40 31 -88 1 l-37 -24
-177 16 c-170 15 -178 15 -198 -3 -30 -27 -25 -41 23 -54 215 -57 338 -93 369
-109 l38 -20 -64 -33 -64 -33 -44 21 c-58 29 -92 22 -84 -18 l5 -27 -96 1
c-122 2 -129 -10 -30 -57 50 -23 76 -41 80 -55 4 -15 13 -21 33 -21 15 0 42
-12 61 -26 45 -34 67 -29 71 19 2 20 9 37 15 37 17 0 221 66 247 80 17 9 30 8
66 -7 43 -18 45 -19 72 -106 26 -84 28 -88 52 -82 37 9 42 18 52 87 5 39 16
70 28 83 24 25 24 29 7 47 -8 8 -11 30 -9 59 4 45 5 46 60 73 69 34 175 104
219 144 37 35 51 73 31 89 -18 14 -126 23 -160 13z"/>
<path d="M1523 3700 c-20 -12 -44 -42 -62 -77 -28 -55 -30 -56 -31 -27 0 19 6
34 15 38 27 10 16 22 -37 39 -32 10 -56 13 -62 7 -8 -8 9 -99 29 -142 6 -16
-1 -18 -83 -18 -50 0 -103 -5 -117 -12 -25 -11 -63 -79 -83 -148 -5 -19 -13
-43 -17 -52 -11 -26 11 -22 53 9 42 31 64 58 74 88 5 17 6 15 7 -8 l1 -27 53
26 c28 15 55 31 58 36 4 6 9 6 14 -2 4 -7 18 -9 38 -4 32 6 32 6 13 -15 -10
-11 -23 -18 -27 -15 -5 3 -9 -1 -9 -8 0 -7 -12 -24 -26 -37 -57 -54 -81 -141
-64 -231 11 -58 60 -190 71 -190 11 0 21 147 14 190 -5 30 -3 44 9 56 9 8 16
24 16 33 0 23 25 85 53 131 l22 35 16 -115 c28 -195 34 -220 76 -350 31 -93
66 -178 118 -285 66 -135 74 -165 49 -165 -19 0 -145 -30 -206 -48 -18 -6 -45
-13 -60 -16 -16 -4 -28 -10 -28 -15 0 -5 28 -2 63 5 119 27 328 59 547 84 225
26 746 37 1015 21 297 -17 610 -57 820 -105 57 -12 75 -13 63 -1 -8 8 -140 43
-255 67 -46 10 -67 24 -165 112 l-113 100 -3 -43 c-2 -29 3 -53 18 -77 l20
-36 -29 21 c-17 13 -58 75 -107 166 -76 141 -80 145 -96 125 -21 -26 -24 -26
-37 12 l-11 32 -21 -21 -21 -20 52 -84 c28 -46 63 -96 78 -111 28 -30 17 -36
-26 -14 -35 18 -85 71 -58 60 17 -6 -91 137 -113 151 -5 3 -12 -6 -15 -20 -4
-14 -10 -25 -14 -25 -4 0 -36 45 -71 100 -60 96 -65 100 -98 100 -29 0 -34 -3
-31 -17 10 -39 182 -285 225 -323 25 -22 43 -40 39 -40 -4 0 -46 19 -92 42
-70 35 -81 44 -63 48 21 5 20 8 -22 43 -69 60 -112 62 -124 8 -9 -43 2 -86 33
-123 l27 -32 -43 24 c-23 13 -50 32 -59 42 -15 17 -15 18 0 18 10 0 17 3 17 6
0 15 -54 210 -61 217 -4 5 -14 -11 -22 -35 l-15 -43 -1 46 c-1 67 -12 139 -22
139 -4 0 -21 -11 -37 -25 -17 -14 -33 -25 -37 -25 -7 0 1 58 12 87 12 30 -14
7 -112 -102 -54 -60 -112 -124 -127 -141 l-29 -31 61 -77 c34 -43 76 -91 93
-107 46 -41 13 -38 -82 8 -58 29 -71 38 -53 41 12 2 22 7 22 11 0 14 -80 72
-90 66 -6 -4 -19 -23 -29 -42 l-18 -36 -36 64 c-20 35 -41 77 -47 93 -10 27
-11 28 -30 11 -18 -16 -19 -16 -22 16 -3 33 -3 33 -113 -90 l-110 -124 -12 64
c-18 98 -27 263 -18 372 7 96 7 98 26 81 27 -25 31 -14 13 34 -10 24 -14 51
-10 66 6 25 7 26 31 10 13 -9 29 -13 35 -9 5 3 10 -2 10 -14 0 -23 38 -91 51
-91 5 0 9 5 9 10 0 6 4 10 9 10 4 0 6 -18 4 -40 -4 -33 0 -47 28 -82 52 -68
52 -68 46 2 -6 64 -26 141 -50 188 -6 13 -37 39 -69 59 -32 20 -58 39 -58 42
1 12 47 39 89 52 23 7 40 17 38 24 -4 8 16 9 71 3 41 -5 77 -7 79 -4 2 2 -24
20 -58 40 -81 48 -125 50 -185 7 -32 -22 -44 -26 -44 -16 0 8 6 15 14 15 29 0
25 18 -11 43 -50 36 -63 27 -63 -45 0 -67 7 -64 -80 -33 -25 9 -63 24 -85 34
-22 10 -66 26 -98 35 -32 9 -57 20 -54 24 2 4 10 22 17 40 8 17 19 32 25 32
17 1 76 60 70 70 -3 6 3 10 14 10 11 0 30 4 43 9 13 5 44 15 71 21 26 7 47 16
47 19 0 11 -139 41 -185 41 -22 0 -54 -9 -72 -20z m25 -325 c26 6 25 4 -12
-34 -22 -22 -40 -40 -41 -38 -1 1 -5 21 -9 45 -6 41 -6 42 15 32 11 -7 33 -9
47 -5z m99 -150 c-40 -32 -67 -86 -67 -132 0 -23 -4 -44 -9 -47 -8 -6 -41 89
-60 174 -14 60 -14 60 7 61 9 0 33 6 52 13 33 12 37 11 68 -18 l33 -31 -24
-20z m40 33 c-3 -7 -5 -2 -5 12 0 14 2 19 5 13 2 -7 2 -19 0 -25z m75 -95 c22
-20 23 -44 2 -103 -12 -35 -16 -88 -17 -232 -1 -104 -3 -188 -5 -188 -1 0 -21
39 -44 88 -22 48 -53 115 -69 149 -36 78 -36 94 1 167 17 32 30 65 30 73 0 8
4 12 9 8 6 -3 20 8 32 25 26 34 35 37 61 13z"/>
<path d="M2345 2475 c-5 -2 -80 -9 -165 -15 -85 -5 -184 -15 -220 -20 -211
-33 -273 -44 -340 -61 l-75 -19 55 5 c30 3 107 11 170 20 63 8 171 19 240 25
69 6 172 14 230 19 136 11 714 11 850 0 58 -5 161 -13 230 -19 69 -6 177 -17
240 -25 63 -9 140 -17 170 -20 55 -4 55 -4 -20 14 -68 17 -142 30 -345 61
-149 23 -323 32 -660 36 -192 2 -354 2 -360 -1z"/>
</g>
</svg>
